  <svg id="Calque_5" data-name="Calque 5" xmlns="http://www.w3.org/2000/svg" viewBox="0 0 595.28 841.89">
  <g>
    <g>
      <g>
        <path d="M377.57,89.74c6.21.66,14.13,2.5,18.13,5.91.52.44,1.08.81,1.62,1.23,4.36,3.42,6.03,15.4,5.11,19.99-2.6,12.99-7.58,25.56-11.81,37.97-2.58,7.52-9.92,12.56-17.53,14.84-3.64,1.09-7.51,1.1-11.19.14-9.59-2.5-25.86-4.32-30.97-7.32-12.48-7.31-3.03-61.17-3.82-75.41.71-15.56-14.43-66.84,1.52-74.63.66-.32,1.38-.49,2.11-.53,44.06-2.23,82.93,38.56,46.84,77.8ZM361.73,43.52c-2.78-1.77-4.39-2.54-8.84-2.19-.43.03-.85.13-1.28.18-7.12.78-2.15,9.2-2.07,14.39.48,4.32-.17,9.69-1.05,13.72,2.23,2.66,7.3,1.83,10.85.44.62-.24,1.33-.62,2.04-1.08,1.69-1.1,3.03-2.65,3.76-4.52.78-1.99,1.53-5.31,1.6-12.4.01-1.41-.26-2.83-.93-4.07-1.12-2.09-2.73-3.6-4.1-4.47ZM353.38,110.78c-.82,10.55.61,20.8-2.09,31.19,4.44.43,15.61,2.12,18.15-4.79,2.97-8.1,3.01-12.69,2.74-18.94-.07-1.72-.88-3.36-2.25-4.41-5.99-4.57-15.59-2.93-16.55-3.05Z"/>
        <g>
          <path d="M540.93,178.79c5.7-16.83,6.33-34.85,8.85-52.37.17-1.2.31-2.4.4-3.6,1.86-24.15,3.19-44.15,30.43-34.39,3.49,1.25,6.09,4.22,6.82,7.85,4.47,22.04-8.89,61.08-16.96,83.54-1.06,2.94-2.31,5.8-3.66,8.62-5.55,11.62-11.09,36.57-18.26,42.63-.82.69-1.86,1.04-2.92,1.11-2.81.18-6.26.14-9.68-.19-1.84-.18-3.66-.58-5.42-1.14-3.17-1.01-4.5-1.59-6.58-2.66-5.01-2.54-6.06-6.72-6.85-11.64-.42-2.62-1-5.2-1.7-7.76-4.04-14.66-3.13-32.27-5.33-46.82-4.41,17.6-4.62,36.42-10.88,53.78-.3.82-.51,1.67-.73,2.52-1.21,4.56-8.14,1.58-11.87-.08-.62-.27-1.25-.51-1.88-.75-9.44-3.64-10.89-12.83-9.96-22.26,2.02-16.62,4.82-31.94,7.62-48.15,3.29-24.59-.69-55.04,11.77-77.17.93-1.66,2.32-3.03,4.03-3.87,6.99-3.47,16.51-1.24,22.53,3.15,34.12,23.44,11.57,75.77,20.22,109.67Z"/>
          <path d="M468.6,203.21c-2,1.82-3.64,1.43-5.19.57-2.22-1.24-4.65-2.02-7.09-2.74-4.67-1.38-9.83-4.48-12.91-7.72-.87-.91-1.46-2.06-1.62-3.31-.19-1.52.06-3.2.38-4.74.26-1.24.42-2.5.49-3.77.26-4.14.32-4.97.82-11.29,1.03-17.33,3.01-28.13-2.5-28.93q-1.59.12-3.33-.1c-9.95-2.87-11.88,49.39-35.39,39.04-3.6-1.76-4.71-2.19-8.31-4.52-1.45-.93-2.43-2.48-2.56-4.19-.16-2.14.58-4.55,1.54-6.62s2.35-5.82,3.05-8.1c1.66-5.41,3.64-11.04,6.02-16.17,1.37-2.95,2.51-6.01,3.39-9.14,6.33-22.44,14.49-44.5,23.7-65.98.59-1.37.94-2,1.9-3.6.56-.94,1.18-1.85,1.84-2.72,2.38-3.08,4.96-5.29,8.86-8.17,1.16-.86,3.83-2.48,5.09-3.18,2.58-1.44,8.13-3.07,12.98-2.94,29.74,1.28,15.02,83.35,13.34,104.13-.85,10.74-1.3,21.14-2.23,31.71-.32,3.66-.28,7.35.05,11.01.38,4.35.47,8.94-2.34,11.49ZM453.8,73.85c-.18-.31-.6-.38-.87-.13-2.41,2.16-5.45,7.43-6.45,10.09-.7,2.14-1.14,3.72-1.77,7.38-.05.31.02.63.21.88,2.03,2.66,4.67,4.71,7.49,6.48.21.13.49.09.65-.09,5.46-6.38,4.75-17.51.75-24.61Z"/>
        </g>
        <g>
          <path d="M289.51,65.02c.91.73,1.56,1.73,1.94,2.83,2.41,7.04,4.99,17.86,1.13,24.61-.42.74-1.03,1.35-1.78,1.76s-1.81.92-2.89,1.4c-2.47,1.09-5.19,1.28-7.85.81-2-.36-4.13-.17-6.71.4-3.96,1.07-1.32,17.89-.16,23.02.16.69.52,1.31,1.03,1.8,6.24,6.03,16.46,3.4,24.27,1.76.99-.21,1.97-.48,2.92-.83,1.93-.72,5.7-1.95,7.99-1.99,3.61-.02,8.03,1.66,9.73,5.01.43.85.61,1.82.62,2.77.09,9.86-.17,19.44-.52,29.09-.05,1.32-.93,2.5-2.21,2.8-.44.1-.9.14-1.36.18-14.4,1.14-26.06,2.93-36.26,4.93-2.7.53-3.63.62-5.42,1.06-7.01,1.75-15.45,2.62-20.98-2.05-2.73-2.31-4.27-4.26-5.72-7.34-1.04-2.2-1.62-4.59-1.76-7.02-.43-7.71-.29-22.68-.43-29.61-1.14-32.91-.49-67.14-4.88-99.94-1.34-5.83,1.21-11.99,7.51-12.16.87-.02,1.73-.12,2.58-.24,7.2-1.08,23.15-2.82,28.1-2.82.85,0,1.68-.05,2.52-.12,9.17-.75,19.64-1.23,28.41.99,1.2.3,2.33.84,3.31,1.6,2.16,1.67,4.57,4.51,5.35,7.46.67,2.56.68,5.26.08,7.84-.87,3.74-1.15,9.13-2.72,12.28-.45.9-1.18,1.62-2.05,2.11s-1.83.94-2.22,1.11c-3.11,1.34-7.62,1.48-11.93,2.24-10.78,1.89-21.4,4-24.8,5.2-5.22,2.79-4.09,12.95-3.61,17.97.73,3.79,3.74,2.54,6.21,1.36,1.04-.5,2.12-.91,3.22-1.26,2.24-.69,6.32-1.98,9.36,1.01Z"/>
          <path d="M280.34,52.82c7.79-3.36,15.34-5.67,25.77-5.58,2.69.02,5.83.09,6.78,2.9,3.22,9.48,11.07,47.78,1.82,58.27-4.92,5.59-16.52,6.85-20.7,7.74-5.95,1.26-12.44.58-11.88-6.76.04-.56.17-1.12.37-1.65,1.4-3.74,3.49-4.23,6.45-4.29,7.11-.13,12.06-3.81,12.57-4.43.38-.47.83-1.03,1.24-1.57.79-1.03,1.32-2.23,1.56-3.51,1.61-8.56-.64-18.71-2.92-27.29-.59-2.21-1.88-4.19-3.75-5.49-2.47-1.71-5.33-2.78-8.26-3.4-1.73-.36-3.53-.22-5.17.42-1.27.49-2.75.86-4.11.2-1.4-1.51-2.81-4.42.24-5.56Z"/>
        </g>
        <path d="M392.07,85.01c-.08-.93.64-1.96,1.39-2.9.97-1.22,1.77-2.57,2.4-4,3.17-7.26,5.64-16.99,4.88-24.48-.23-3.95-2.75-7.71-3.52-11.61-1.25-6.33,2.91-7.32,8.61-6.85,6.22.24,16.72,2.06,21.28,3.83,7.13,2.61,7.32,6.19,2.68,10.78-11.17,9.64-13.03,25.69-20.06,38.52-.13.24-.25.49-.36.74-.4.89-1.01,1.81-1.87,2.15-1.92.91-4.04-.59-5.76-2.17-.39-.36-.83-.66-1.31-.88-2.33-1.08-6.2-1.97-7.57-2.27-.42-.09-.74-.44-.78-.87Z"/>
      </g>
      <g>
        <path d="M215.28,68.16c6.4,25.13,17.02,47.73,22.23,73.15.29,1.44.66,2.86,1.12,4.25,1.15,3.46,3.12,9.5,3.27,12.71-.07,4.16-.22,9.07-4.59,11.21-2.2,1.52-13.72,6.01-16.36,6.42-8.64,1.17-13.99-3.63-13.61-11.53.14-2.93-.11-5.88-.61-8.77-1.44-8.47-4.36-17.05-6.46-25.11-3.17-12.18-5.41-24.85-9.92-36.53-3.89,2.64-14.31,13.26-15.95,14.61-10.72,8.78-23.55,6.66-27.27-9.07-2.36-12.65,11.2-27.95,18.47-40.18,1.71-2.89,19.65-24.09,27.36-31.58,3.13-3.04,6.68-5.6,10.57-7.56,10.32-5.19,25.25-10.46,30.31,1.72,2.88,7.91,6.17,21.88-1.25,27.75-2.2,1.74-13.85,14.39-17.33,18.52Z"/>
        <g>
          <path d="M127.22,94.55c-5.9,8.29-2.03,21.75,7.57,26.33,6.17,2.94,7.96,2.03,12.99-.36,3.21-1.52,6.68-2.48,10.22-2.62,22.04-.83,39.99,22.28,39.99,43.73,0,17.92-9.91,29.98-59.27,41.57-12.11,2.84-15.97-11.7-19.02-22.12-.7-3.14-1.4-5.63.21-8.37,6.42-11.72,33.65,5.84,47.89-21.29-3.42-6.81-9.49-3.84-12.58-2.57-3.25,1.15-5.81,3.11-8.85,4.56-31.08,12.1-56.46-17.73-56.95-47.52-3.3-40.35,36.12-50.4,64.8-64.9,21.97-9.46,6.38,15.79-.96,25.9-2.8,3.86-3.16,4.46-6.46,10-1.68,2.82-3.86,5.29-6.6,7.08-4.69,3.07-9.09,6.45-12.98,10.59Z"/>
          <g>
            <path d="M41.04,146.01c-3.45,2.16-2.42,6.78-1.8,10.34.51,2.14,1.02,5.32,2.68,6.57.79.53,2.02.55,2.74,0,.34-.25.6-.57.87-.9,2-2.63,6.03-3.18,8.79-1.56,5.06,2.79,8.38,11.12,8.98,16.46.44,3.53-2.38,6.74-5.77,7.4-2.42.38-5.4,2.02-3.75,4.78,1.21,2.19,2.3,4.72,4.38,6.21,3.63,2.53,8.69,2.43,12.54.45,9.97-5.04,21.49-7.32,31.51-11.99,10.56-5.48,13.16,2.3,16.08,10.37,1.93,4.39,5.91,10.01,3.82,14.61-.84,1.35-2.52,2.01-3.82,2.81-4.82,2.89-10.25,6.21-16.97,10.25-6.01,3.6-12.52,7.46-18.72,10.95-11.19,6.32-21.29,11.47-25.42,11.89-.75.04-1.72.01-2.57-.04-12.42-.44-17.53-9.48-20.84-19.81-2.04-6.71-5.09-13.32-8.19-19.68-3.45-8.07-5.9-15.95-9.11-24.51-2.32-6.24-5.12-14.21-7.45-19.7-1.25-2.76-2.66-5.78-3.51-8.51-9.98-25.66,44.49-60.6,61.98-67.46,8.78-3.6,15.4-4.48,17.16-1.32.79,1.25.36,3.49-.04,5.14-.71,3.36-1.2,6.75-1.29,10.2-.07,6.1.17,12.31.34,16.88.4,4.14.1,7.02-3.76,9.4-3.76,2.37-7.86,3.39-11.67,5.5-9.24,4.89-18.68,8.35-27.03,15.15l-.15.12Z"/>
            <path d="M62.62,156.02c-2.37-3.4-8.33-2.27-9.81-6.6-1.86-6.6,9.58-10.44,14.09-12.18,2.7-.93,5.56-1.93,8.19-3.37,3.02-1.54,5.91-3.63,9.3-4.22,2.61-.5,5.17.55,5.92,3.25.8,2.38,1.09,5.04,2.36,7.26,1.61,2.93,4.97,7.09,7.62,9.59,2.47,2.48,6.34,3.76,9.3,5.14,4.97,2.33,8.25,8.78,7.53,14.16-1.06,4.44-5.73,6.26-9.39,8.37-4.41,2.27-8.18,3.72-12.74,4.43-5.82,1.02-11.05,1.87-16.56,4.38-1.56.72-2.91,1.77-4.5,2.32-2.8,1.08-5.71-.86-6.16-3.79-.85-3.23,1.22-6.34.68-9.53-.59-3.78-2.66-10.69-3.9-14.52-.53-1.59-.77-3.25-1.84-4.57l-.1-.13Z"/>
          </g>
        </g>
        <path d="M233.73,58.96c4.41-3.09,5.67,26.14,6.6,32.8.12.83.2,1.66.25,2.5.19,3.74.36,9.56-3.03,9.6-1.24.01-2.36-.77-2.94-1.87-4.48-8.56-9.39-19.34-10.11-28.78-.06-.72.23-1.41.72-1.93,3.44-3.66,6.25-8.2,8.53-12.31Z"/>
      </g>
    </g>
    <g>
      <path d="M.4,766.55c-.25-.03-.37-.31-.2-.5,2-2.22,17.69-10.31,25.28-13.65,6.9-3.04,14.9-10.31,20.8-15.31,9.62-8.15,20.57-17.46,29.47-26.28,1.63-1.62,8.72-10.13,9.98-10.36.44-.08.9-.05,1.33.06,3.33,1.16-3.26,8.94-4.33,10.28-8.92,11.11-22.33,23.01-33.29,32.27-8.61,7.27-15.61,13.19-26.38,17.09-6.75,2.45-20.15,6.69-22.66,6.41Z"/>
      <path d="M63,563.83c2.39,2.23.07,4.5.1,6.74.01,1.14,1.14,2.59,1.22,3.97.13,2.19-1.9,4.42-4.11,4.19-.51-.05-2.09-1.16-2.36-.1-.11.42,3.49,6.03,3.96,7.6,1.16,3.82-.98,7.58-4.5,4.15-1.76-1.72-.76-3.55-4.37-2.82.98,3.78-2.26,7.09-5.07,3.49-1.16-1.49-.3-2.02-2.84-2.77-.72-.21-.4.17-.5.49-.28.89-.59,3.13-2.09,2.48-2.05-.89-1.29-4.73-1.85-5.72-.07-.12-.71-.31-1.05-.86-.46-.73-.51-2.03-.78-2.38-.48-.61-1.85.08-2.22-1.65-.29-1.37,1.17-6.8,2.12-7.71,1.47-1.42,2.73.6,2.89.6.24,0,1.22-1.54,1.83-1.7,2.39-.63,3.85,1.49,5,3.1l.35-2.64c.83-.69,1.6-.2,2.45.19l.33-3c.91-.63,2.51.28,2.98.15.52-.13.55-1.14.9-1.54,1.12-1.29,2.07-1.8,3.86-1.57-.65-2.56,1.74-4.57,3.75-2.7Z"/>
      <g>
        <path d="M469.9,706.54c-8.8,9.17-18.83,12.09-31.21,13.84-26.84,3.8-51.85,3.62-78.82,1.8-1.19-.08-3.89-1.04-4.74-.52-4.61,6.35-8.41,13.18-12.26,20.01.08,2.71.63,5.69.71,8.37.6,21.49-1.18,42.99-1.08,64.54.03,6.51,1.07,15.52-1.36,21.75-.11.28-.29,1-.73.68-1.03-.7-1.92-6.32-2.1-7.72-.63-5.02-.82-10.35-1.07-15.41-1.19-23.77-.48-46.38.39-70.12.04-1.17-.41-2.13-.39-3.14.05-2.83,5.42-10,7.08-12.93,1.89-3.32,5.42-11.43,7.64-13.75,2.72-2.84,6.22-.59,9.66-.16,22.83,2.85,47.65,2.02,70.46-.7,15.15-1.81,27.22-3.93,37.13-16.5,1.72-2.18,2.99-6.58,6.62-5.5,3.87,1.15-.28,8.17-1.57,10.2s-2.76,3.62-4.36,5.28Z"/>
        <path d="M303.6,841.71c-.78.55-1.74-1.98-1.88-2.5-.92-3.47-1.23-5.73-1.73-9.48-2.59-19.45-3.91-40.03-5.17-59.69-.52-8.19.12-19.87-4.25-26.95-.64-1.04-1.79-1.8-2.55-3.06-4.13-6.84-6.69-13.68-10.07-20.78-.43-.9-1.89-4.15-2.42-4.6-1.15-.98-8-.49-9.99-.52-26.13-.44-51.25-.15-77.46.69-17.06.54-34.92.82-51.78-2.92-1.31-.29-4.64-.71-4.85-2.19-.12-2.81,3.46-2.33,5.46-2.27,8.33.25,17.03,1.44,25.59,1.75,17.38.63,34.82-.95,52.21-1.4,18.61-.48,37.14-.05,55.74.38,3.7.09,5.9-1.33,8.77,1.4,2.71,2.58,5.41,10.52,7.24,14.15,7.99,15.83,12.81,24.07,14.68,42.46,1.15,11.31,2.36,24.48,2.12,35.77-.05,2.5-.75,5.9-.68,8.36.24,8.71,2.91,15.72,2.78,24.56-.04,2.31-.61,4.83-1.76,6.83Z"/>
        <g>
          <path d="M329.91,753.76c-.27,17.7.43,35.8-1.43,53.45,0,1.3,1.78,3.21-.08,4.48-2.19,1.49-3.36.47-5.34.56-4.53.49-8.45-.19-13.02-.07-3.36.22-2.51-3.42-2.27-5.74.06-.54.03-1.08-.07-1.61-3.1-16-2.21-33.12-1.63-49.35-2.77.7-4.58-3-2-4.28,1.58-.79,4.85-1.03,6.23.22,3.46,3.25-5.09,2.43,2.6,12.05.27.33.6.62.99.81.65.33,1.58.72,2.24.91.39.11.79.09,1.17-.06,2.07-.81,5-2.94,6.25-4.66.09-.13.17-.25.23-.39.84-1.84.76-5.45.83-7.25-.04-.74-1.47-2-.32-3.15,3.43-2.52,12.94.76,5.64,4.07ZM324.63,804.92c-.92-2.09.28-8.83-.53-10.16-1.84-2.84-9.86-2.18-12.16-.11-.07.07-.11.16-.11.26l.18,9.9c0,.07.06.12.12.12.44,0,.87-.05,1.29-.12,2.3-.36,4.62-.22,6.91.17,1.34.23,2.78-.21,4.29-.05Z"/>
          <path d="M332.2,737.06c5.77,3.68-.79,13.76-4,8.71-.49-4.1,6.84-6.88-3.03-7.47-5.61-.34-12.45-.13-17.34,2.69-.47,1.41,2.84,4.82.31,6.95-2.19,1.85-5.48-.86-6.59-2.85-7.42-12.41,27.5-16.8,30.65-8.03Z"/>
          <path d="M313.32,741.88c.6-.17,1.21-.15,1.71.26,1.28.99.4,6.37.5,8.26s.39,4.51,1.22,6.13c1.83-.04,1.73-12,2.47-13.65.57-1.29,2.89-1.56,3.27-.11.15.55-.36,2.72-.32,3.8.12,3.26.81,5.52-.15,8.93-.85,3.01-4.04,7.32-7.53,5.06-2.94-1.9-3.05-10.78-2.81-14.01.1-1.36.22-4.26,1.65-4.67Z"/>
        </g>
      </g>
      <path d="M49.26,598.09c3.95,5.39,3.17,15.44.69,21.37-.87,1.79-3.9,8.16-6.44,6.81-.15-.08-.24-.25-.24-.41-.12-4.47,3.8-8.4,3.7-13.23.38-4.63-.91-10.73,2.29-14.54Z"/>
      <path d="M385.82,661.38c-.5.63-.6,1.11-1.25.69-2.01-1.3-6.14-7.58-2.79-9.12,1.57-.72,2.54.1,3.32,1.48.72-2.4,3.03-2.14,3.78-.53,1.21,2.6-1.53,5.57-3.06,7.48Z"/>
    </g>
    <g>
      <path d="M126.56,403.51l1.67,3.41c3.72,13.62,9.55,26.45,16.24,38.83.05,3.1-3.41-1.41-4.03-2.31-3.7-5.33-13.88-28.25-13.88-34.15v-5.78Z"/>
      <g>
        <path d="M175.28,262.23c.27-.34-1.2-1.85-.16-2.46,1.26-.34,5.42,5.58,6.12,4.91l-1.03-2.59c.47-.84,1.26-.62,2-.3,2.25.98,6.32,6.9,8.68,8.5l.52-.17c-1-1.77-2.24-3.64-2.1-5.79,1.39-.32,1.82.79,2.8,1.4l-.33-1.53c1.42-1.75,2.89,1.55,3.82,2.42.56.52,3.43,2.98,3.88,3.13,1.07.36,2.36.11,3.49.54-1.29-4.5,1.44-.58,2.46-.16.59.24,1.25-.4,2.35.07.75.31,1.39,1.33,2.02,1.84l.73-1.03c1.84-.62,4.33,4.7,5.94,5.58h.5c-.03-.84.91-1.1,1.58-1.04,2.23.21,11.67,9.66,12.4,12.51.04.41-.3.83-.64.99-2.06.97-7.18-3.93-8.58-5.44l.18,1.4-2.45-.69c.19.6.91.87,1.2,1.42.66,1.27,3.17,6.85,3.28,7.94.06.64-.29,1.21-.28,1.85-2.77-.28-4.14-3.14-6.14-4.9s-5.26-3.39-7.01-4.91c-.75-.66-2.94-3.99-3.57-4.17l-4.31.31c.33.6,1.2.49,1.93,1.05.3.23,1.16,1.02.87,1.4-3.79,1.44-9.22.48-13.04-.8-1.81-.6-2.34-1.43-4.31-1.65-6.53-.73-13.07-.8-19.62-.36-1.6-.3-1.51-1.93-.32-2.75.64-.44,2.78-.46,2.06-1.45-2.09.72-4.24,2.45-6.47,2.67-1.2.12-1.45-.75-1.94-.79-.73-.05-2.15,1.53-3.19,1.64s-1.64-.74-2.02-.68c-.91.15-1.75,4.19-3.75,2.28-1.04-1.38.23-3.69,1.08-4.94,0-.29-.71-.24-.87-.19-.56.18-3.09,5-4.04,5.45-2.28,1.05-2.45-1.58-2.63-1.58l-.87,1.59-2.1-.18c-.08,2.15.02,8.28-3.29,5.28-.67,1.45-2.53,1.15-2.97,1.43-.28.18-.23,2.29-1.63,2.28-1.18,0-1.84-1.75-2.1-2.68-.87.62-1.2,6.14-3.24,4.12-.51-.5-.62-2.69-1.31-2.36-1.07.51-.03,6.18-2.62,6.85-1.38.36-2.51.78-3.84,1.76-.59.43-.79,1.57-1.67,1.83-1.74.52-3.09-.21-4.31-1.33-.72.98,1.86,5.88-1.38,4.91-.01,1.43-.74,1.83-1.97,1.07-.87-.53-3.38-7.13-3.76-8.51-1.43-5.19-1.97-14.67,1.35-19.18,1-1.37,2.67-2.4,4.34-1.78.59-2.47,1.43-4.56,3.55-6.11.25-.18,3.37-1.98,3.58-2.04,2.96-.99,3.67,1.41,3.41,3.94l3.63-1.07.57.71c1.13-2.57,5.4-6.87,8.24-7.02,1.1-.05.28,2.73.53,3.51l2.23-.99c1.06.21.64,2.06,1.44,1.68.32-.15,3.3-4.66,4.25-5.57.76-.73,3.67-2.92,4.53-3.19,1.38-.42-.41,2.17-.18,2.45,1.4-1.16,2.97-.84,4.49-1.29s3.05-1.89,4.44-1.9c1.55-.01,9.23,3.43,10,2.84l-1.39-2.28,1.21-1.21,5.79,3.5ZM159.16,260.13l-.73.22-1.02,1.88,3.51.35c-.6-.94-1.96-1.03-1.76-2.45Z"/>
        <path d="M152.85,312.01c-.17-.55.92-3.48,1.4-3.15.92,1.24,1.56,2.86,2.39,4.1.3.45.39.96,1.12.8-.5-1.35-1.51-3.66.49-4.18l3.02,5.24c-.25-1.28-.96-4.18,1.07-4.04l1.74,3.34c-1.01-3.86,1.18-6.5,2.46-1.4.81-.31-.18-2.12,1.22-2.1l1.05,1.39c1.17-1.48,3.93.76,3.69,2.46,1.46-.63,1.45-1.31,2.02-2.34,1.36-2.46,2.05,1.44,2.19,2.69l2.63-3.15c.78,1.88,2.74.15,4.39.87l.34,2.28c1.27.31,1.09-.77,1.93-1.4l1.22,1.39,1.05-1.4c1.8,3.93-1.97,3.08-2.39,3.58-.3.36-.57,1.94-1.1,2.56-1,1.17-1.36.01-2.03-.11-1.55-.28-2.31.14-3.43.26-.58.07-3.83.24-3.99-.02l-.03-1.37c-1.19-.08-2.25.49-3.38.69-.67.12-1.34-.25-1.72-.19-.44.06-.69.9-1.37.91-.6.01-1.27-.74-2.33-.61-1.46.19-2.72,1.78-3.29-.8-.43,2.06-2.01,1.05-3.47,2.44l-1.61-2.09v1.4c-.68-.44-2.35.4-3.05.81-.57.33-.3,1.5-2.21.59l.04,1.54-1.04.24-.37,1.93c-.69.95-1.71.06-1.78.14,1.07,3.89-.44,3.31-3.51,3.51-.21.16,2.7,4.58-.49,3.87-.42-.09-.31-1.43-1.14-1.72s-2.41.06-3.44-.06c-5.58-.68-11.5-3.83-13.85-9.11,2.21.05,3.71.9,5.6,1.59.33.12,1.14.46,1.06-.19-1.6.06-5.34-6.11-4.9-6.67l7.36,3.85c-.46-1.48-2.05-2.42-1.75-4.2l3.15,1.4-.69-4.56,5.25,3.85c-1.43-1.88-1.67-3.71-2.1-5.95,1.11-.83,6.14,5.13,7.19,5.95.15-1.03-.68-1.89-.85-3.01-.13-.85,0-1.74-.03-2.6l2.81,3.5c.59.09.38-.85.34-1.22-.17-1.78-1.53-3.58.18-5.08l2.98,3.5Z"/>
        <path d="M217.71,314.82l-1.64,1.69-8.88,4.62,24.33.04,5.47,1.02-4.63,1.86c-9.62,2.54-24.51,1.86-34.36.14-.93-.16-5.31-.79-3.82-2.55.7-.83,3.82-.52,5.04-.87.33-.1.25-.71.92-.89,1.05-.28,2.12-.04,3.21-.31,4.85-1.16,9.31-4.69,14.36-4.75Z"/>
        <path d="M174.54,349.22l-.16,1.39c-13.11,4.9-29.32,8.67-38.49,19.98-2.37,2.92-4.13,6.33-6.7,9.08l-.85-.56c2.87-13.63,15.8-20.89,27.85-25.39,4.03-1.5,10.05-3.6,14.19-4.39.8-.15,3.73-.82,4.17-.11Z"/>
        <path d="M206.13,356.53c-3.44-1.25-6.26-3.7-9.45-5.44-5.57-3.03-16.89-7.86-23.01-8.9-1.36-.23-3.68.6-4-1.28-.28-1.7.71-2.43,2.27-2.62,5.33-.63,21.57,5.99,26.45,8.97,3.16,1.94,7.71,5.24,7.74,9.26Z"/>
        <path d="M179.85,333.39c-.68-.7,1.31-.97,1.62-1,7.86-.94,20.9,2.79,27.59,7.04,1.98,1.26,4.15,2.85,5.14,5.02-.04.98-2.67-.16-3.14-.36-8.73-3.68-13.62-6.85-23.48-9.12-1.32-.31-7.13-.96-7.72-1.57Z"/>
        <path d="M139.88,336.2l-2.1,3.33,1.39.7c-2.21,2.82-3.67,6.11-4.91,9.46-.88,2.37-1.05,5.29-2.63,7.19-.81-4.96,2.05-9.55,3.68-14.02-4.81,4.33-10.41,9.63-17.17,10.16-.09-.91.94-1.34,1.57-1.76,4.51-3.06,8.98-4.47,13.34-8.4,1.99-1.79,3.7-4.41,5.6-5.97.4-.32.56-.85,1.23-.7Z"/>
        <path d="M194.22,310.62l-.18.7c-7.55-2.05-14.9-6.39-22.79-7.36-3.39-.42-6.73-.24-10.12.04l-7.23,2.24c2.22-1.87,5.48-2.91,8.33-3.23,11.09-1.25,22.3,2.65,31.98,7.62Z"/>
      </g>
    </g>
    <g>
      <g>
        <path d="M594.48,394.52c-.14.27-.16.54-.4.35-11.84-9.3-22.42-18.96-37.72-22.39-5.56-1.24-17.13-3.05-22.61-2.9-4.07.11-10.06,1.77-14.43,2.33-6.46.83-13.43,1.66-19.92,1.82-17.57.43-34.66-4.04-50.51-11.23l-3.32,2.44c1.39.42,3.18-.98,4.2.18-3.22,2.59-5.39,5.29-9,7.47-18.01,10.85-40.01,17.03-60.93,16.93-1.56,0-3.64-.71-5.25-.75-6.25-.16-12.29.42-18.49-.79-16.53-3.24-28.44-20.76-36.13-34.51-2.36-.8-4.82-.65-7.2-1.39-6.03-1.87-11.04-8.17-14.63-13.07-.01,1.2.95,2.68,1.52,3.74,3.08,5.74,10.48,15.27,15.86,18.84,2.74,1.82,6.08,3.04,8.84,4.83,1.72,1.11,2.83,2.91,4.8,3.09.1.55-.12.77-.6.97-12.39,5.07-22.55-5.57-29.54-14.48-15.12-19.29-15.93-40.13-18.99-63.4-1.15-8.72-4.63-22.1-1.96-30.45,1.05-3.28,4.32-3.92,5.79-.73.34,13.25,2.72,26.82,5.44,39.79,4.66,22.22,9.94,35.23,27.78,49.7.38.31,2.26,2.36,2.88,2.55-1.22-2.11-3.21-6.03-4.18-8.26-9.86-22.58-19.49-42.29-23.02-67.08-.19-1.32-1.12-6.37-.59-7.14,1.56-2.28,2.25,4.14,2.46,4.92,2.5,9.46,5.37,20.09,9.13,29.08,2.64,6.31,6.14,12.47,8.99,18.71,7.96,17.39,13.79,33.7,27.97,47.4,5.3,5.12,12.03,9.57,19.64,9.8-8.61-6.96-16.54-14.7-22.58-24.05-10.15-15.69-20.25-38.11-27.61-55.47-4.44-10.48-7.85-21.22-13.19-31.34-1.03-1.96-3.22-2.93.65-4.5,0-1.55-2.26-5.99-1.46-7.01.63-.79,1.43-.63,1.94.22.69,1.15,1.48,4.37,2.13,5.93,9.69,23.25,16.96,41.19,31.43,62.17,11.38,16.5,24.32,36.17,45.44,39.75,22.56,3.83,41.15,1.41,62.55-5.96l3.08-1.47-11.76-7.53c-4.67-.19-8.38-.21-12.85,1.14-1.29.39-2.79,1.36-4.04,1.57-7.8,1.31-30.69-4.31-39.42-6.34-36.21-8.39-47.33-31.63-61-63.11-6.51-15-12.74-31.31-17.56-46.95-.98-3.16-3.84-11.54-2.99-14.39.38-1.29,1.73-1.02,2.32,0,.65,1.14,1.26,4.65,1.81,6.25,5.11,14.69,11.51,29.99,17.82,44.23,12.19,27.5,24.35,57.33,56.57,65.43,5.95,1.5,12.13,2.18,18.09,3.65l1.13-.25c-1.68-.51-3.58-1.27-5.14-2.05-29.22-14.49-52.74-53.74-66.08-82.56-2.69-5.82-9.88-20.92-9.4-26.7.07-.79.28-3.04,1.57-2.63.5.16,1.23,6.15,2.01,7.1,14.87,31,31.32,65.22,58.11,87.73,11.09,9.32,24.21,13.7,38.21,16.83,2.63.59,5.38,1.2,8.07,1.4-12.29-9.64-23.72-20.04-32.4-33.16-.97-.7-3.87-.2-5.28-.33-12.24-1.16-29.87-18.98-36.93-28.63-14.18-19.39-20.55-45.48-34.98-64.24-2.21-2.87-2.49-3.28-6.27-3.55-6.84-.48-12.97.85-19.83-1.21-8.18-2.45-14.91-11.37-15.42-19.81-.81-.2-.58.16-.8.44-.63.81-4.14,6.89-5.51,5.51-.1-.74.04-1.32.27-2,1.33-3.95,7.47-12.6,10.26-16.03,2.57-3.17,3.38-4.76,8.05-4.04l-.7,1.4,1.15-.07c8.5-4.43,16.45-11.17,26.54-11.14-4.23,3.77-9.89,4.66-14.73,7.18-2.74,1.43-8.56,6.22-11.08,6.48-2.76.28-2.57-1.82-2.76-1.74-1.5,1.51-3.03,3.09-4.37,4.74-.66.82-3.56,4.41-3.71,5.06-.58,2.37,4.47,10.16,6.17,12.1,3.07,3.51,7.96,6.5,12.79,6.5h10.34c-.23-.6-.59-1.13-1.04-1.59-4.14-4.24-9.83-7.65-14.06-11.88-.83-1.08-.18-2.29,1.22-1.97.41.09.43,1.79,1.07,2.49,3.91,4.29,12.71,7.82,16.81,12.63,4.38.49,8.86.22,13.3.73,5.18.59,10.27,1.97,15.14,3.8.86,1.39-2.2.99-2.78,1.1-2.13.4-4.2,1.15-6.39,1.32l-11.7.57c16.08,18.06,23.18,42.1,37.37,61.49,5.91,8.08,24.03,28.43,33.43,30.73.37.09,1.19.4,1.41-.01l-35.9-51.39c-.59-.96-3.56-5.59-3.66-6.18-.07-.43-.1-.7.28-.99.42-.28,1-.25,1.43,0,.34.21,3.39,5.7,4.12,6.75,3.92,5.61,8.52,10.65,12.69,16.06,9.89,12.84,19.53,26.25,29.66,38.7,11.13,13.68,23.88,25.36,38.9,34.72l12.43-1.56c-5.39-3.63-10.95-6.97-16.23-10.76-19.16-13.73-34.56-30.88-49.85-48.66-11.58-13.46-24.94-28.98-33.97-44.2-1.56-2.63-2.84-6.64-4.26-8.71-2.25-3.3-7.39-6.73-10-10-.83-1.63.41-2.61,1.98-1.61,9.15,9.59,19.12,18.26,28.74,27.35,11.24,10.63,21.18,21.09,33.51,30.65,18.38,14.25,40.17,29.91,61.19,39.78,4.28,2.01,10.7,5.18,15.15,6.24.59.14,1.15.35.4-.4-26.32-16.17-53.76-32.93-75.57-55.03-4.23-4.28-7.95-9.05-12.06-13.35-5.27-5.51-11.36-10.3-16.67-15.94-.83-.88-5.73-6.08-5.79-6.51-.21-1.42.76-2.19,2.13-1.76,15.99,14.85,34.59,32.46,56.25,39.13l27.17,7.88c-9.89-9.13-19.91-17.54-31.23-24.86-10.97-7.09-19.13-12.56-29.45-20.68-1.26-.99-6.39-4.16-6.81-5.14-.16-.37.04-.71.19-1.03-11.54-4.04-22.45-9.64-34.28-12.88-6.52-1.78-13.2-2.61-19.35-5.71-.08-.62.8-.35,1.18-.31,4.99.55,12.37,2.42,17.46,3.57,5.67,1.28,11.7,3.55,17.09,4.65.36.07,1.15.45,1.07-.19-7.5-3.11-14.82-6.57-22.71-8.67-14.71-3.92-31.1-4.43-45.37-8.27-.96-.26-1.94-.31-1.68-1.65.32-.49,5.81.84,6.89,1,19.67,2.91,41.28,4.97,59.81,12.06,12.85,4.91,24.42,11.88,36.84,17.5,11.33,5.14,22.68,10.3,34.01,15.43,13.51,6.12,25.28,7.55,39.51,10.63,5.96,1.29,12.51,3.54,18.41,4.38.21.03.57.1.52-.17-.4-.47-.82-.82-1.4-1.05-2.97-1.19-8.51-1.78-12-2.73-14.09-3.82-31.56-11.12-45.14-16.91-35.97-15.32-66.41-47.14-108.17-44.36-.71.05-1.39.25-2.1.33-.45.05-.88.19-1.28.39-.34.17-4.54,2.88-5.71,2.55-.11-.03-.19-.13-.2-.25-.2-2.94,3.12-4.89,5.61-5.65,4.47-1.35,9.27-1.79,13.93-1.72,2.29.03,4.94.39,5.36-.14.2-.25-.54-1.16.23-1.4,3.36-1.04,12.24,1.86,15.89,2.92,5.52,1.61,10.94,3.68,16.48,5.26,15.64,4.46,31.25,6.61,47.04,10.1,31.49,6.96,58.35,22.29,91.62,20.94,2.82-.11,5.83-.76,8.7-.74.22,0,.41.14.48.35.83,2.29,2.01,4.42,3.59,6.28.15.18.05.45-.18.48-15.91,1.84-32.27.91-47.67-3.56-12.07-3.5-23.84-8.89-35.75-12.98-12.05-4.15-24.36-7.49-36.99-9.46l13.84,4.91c13.25,3.6,25.88,7.24,37.93,13.96,3.9,2.18,13.26,9.34,16.51,10.14,7.26,1.78,17.93,2.93,25.55,3.9,15.08,1.91,29.64,2.74,44.82,1.45,2.92-.25,5.87-.91,8.81-1.24.93-.1,1.86-.06,2.79.08l4.97.75c.14.02.18.21.05.28l-5.13,2.88c-.14.08-.28.15-.42.21-13.65,5.96-40.81,3.07-55.53.84-6.18-.94-12.28-2.42-18.46-3.27l9.34,7.14c16.48,2.3,33.15,5.66,49.73,7.41,12.82,1.35,23.53-.77,36,3.27,1.2.39,4.37.15,4.17,2.16s-3.6.6-4.71.66c-2.87.14-7.81,1.74-11.02,2.23-13.45,2.03-26.7.17-40.23.79-3.22.15-6.73.8-9.98,1.07,4.31,3.59,8.81,7.02,13.36,10.3,2.43,1.75,6.33,5.09,8.84,6.24s5.91,1.46,8.57,2.3c5.63,1.77,10.43,4.62,16.38,4.3,11.3-.62,16.32-3.19,28.15-.1.5.13,5.36.52,4.28,1.5l-25.24,4.21c-.14.64.2.69.58.99.79.61,2.95,1.98,3.86,2.45,1.33.7,5.23,1.44,5.72,2.34.92,1.7-9.22-1.29-13.75-2.38-1.91-.46-4.41-1.65-6.14-1.92-3.94-.62-7.07-.04-11.46-1.16s-8.23-4.02-11.68-4.8c-6.13-1.37-13.83-1.38-20.21-2.23-37.76-5.05-71.08-31.81-104.33-49.22-6.67-3.49-16.02-8.59-23.12-10.53-.57-.16-3.89-1.6-4.58-1.9,4.24,2.29,11.35,7.72,15.31,10.45,11.61,7.98,24.46,13.85,36.19,21.66,13.09,8.71,24.18,19.49,38.24,26.97,26.64,14.18,58.19,15.76,87.37,21.66,4.32.87,8.83,1.85,12.89,3.58,2.95,1.26,7.96,4.16,10.31,5.54.35.21.17.75-.24.69-2.1-.31-5.72-1.1-6.74-1.17-7.09-.51-13.84-.85-20.97-1.79-13.02-1.73-25.83-4.55-38.79-6.61,5.15,3.8,11.45,6.96,17.61,8.85,7.97,2.45,17.91,4.63,26.14,6.47,6.8,1.52,14.37,2.09,20.91,3.98,3.62,1.05,6.66,3.16,10.09,4.67.13.06.1.24-.04.26-.91.1-2.83.28-4.07.28-1.66,0-3.57.66-5.24.75-13.94.68-32.17-4.51-45.77-8.25-16.06-4.42-27.69-14.24-42.53-21.28-13.3-6.3-28.23-12.65-42.12-17.47-13.6-4.72-27.81-7.82-40.74-14.3-1.92-.96-5.72-3.76-7.3-4.27-.18-.06-.57-.1-.52.17,9.19,8.26,18.83,16.17,28.99,23.25,27.96,19.48,58.53,34.38,89.62,48.16,6.74,2.99,12.15,4.91,19.71,4.51,10.78-.57,17.18-2.77,28.62-.6,4.8.91,14.24,2.79,14.31,3.05.08.28-4.73.7-4.73.7l-13.85,1.4c11.79,2.16,23.48,5.36,34.42,10.23.2.09.17.38-.04.42-2.23.43-9.37,1.7-13.47,1.22-8.18-.97-16.17-3.53-24.3-4.8-14.33-2.25-26.31-2.25-40.51-6.82-15.31-4.93-30.85-10.33-46.04-15.66-43.69-15.34-84.23-49.83-114.95-83.66l-9.31-8.73c9.24,13.84,19.96,26.67,31.02,39.09,21.38,24,46.09,49.28,75.43,63.4,12.63,6.08,24.51,7.38,37.71,11.02,9.88,2.72,19.36,6.7,29.3,9.27,19.63,5.06,37.96,2.8,56.53,12.54,7.6,3.98,19.88,19.72,18.48,22.39ZM470.82,242.24c-1.7-1.53-5.46-5.26-7.46-6.03s-8.57-1.04-9.73-2.19c-.51-.56-.5-1.66-.17-2.3s2.87-.32,2.44-.91c-14.19-10.42-31.71-15.29-48.02-21.17-12.14-4.38-24.05-9.53-36.63-12.62l30.61,17.24c19.77,10.32,40.67,18.6,61.75,25.89,2.32.8,4.79,1.78,7.19,2.09ZM516.74,277.31l-18.91-14.22c-16.61-1.14-32.33-7.25-48.75-9.62l9.46,5.44c14.74,7.47,29.29,15.07,45.87,17.59,4.04.61,8.15.71,12.17,1.5l.17-.69ZM404.21,377.92c-3.27.19-6.69-.02-9.99-.35-7.31-.73-16.91-1.99-23.85-4.2-14.84-4.72-25.27-18.17-34.17-30.16,1.75,3.59,3.89,7.19,6.16,10.49,4.31,6.25,23.09,26.54,30.11,27.38,7.69.93,22.31-.59,30.05-2.23.64-.14,1.97.04,1.69-.93ZM510.78,363.9c-7.54-2.32-14.86-5.34-22.44-7.54-10.41-3.02-20.63-4.59-30.94-8.33-1.59-.58-4.88-2.44-6.14-2.66-1.75-.3-7.78,3.94-10.25,3.8,3.13,2.45,6.92,4.07,10.49,5.79,1.2.24,2.2-2.39,3.98-1.89,2.5.7-.81,2.96-.45,3.45,13.69,5.39,28.49,8.87,43.31,8.43,3.71-.11,7.47-.59,11.21-.71.42-.01,1.3.26,1.22-.35Z"/>
        <path d="M594.09,415.06c.3.09.28.53-.04.58-3.71.59-14.97,2.09-20.76-.5-14.37-6.42-26.25-17.32-40.89-23.26-.86-.35-2.17-1.14-3.05-.81,6.06,3.09,11.8,7,17,11.4,10.28,8.71,16.97,20.88,31.95,22.38,5.65.57,10.88-1.23,16.28-.11.33.07.5.46.31.75-.57.88-1.68,2.49-2.55,2.98-5.18,2.92-11.74,3.03-17.43,1.88-18.74-3.79-26.16-21.46-40.54-32.38-4.76-3.62-18.77-11.63-24.48-11.63h-7.19c.41,1.09,1.51,2.25,2.27,3.16,11.97,14.38,24.28,26.17,40.61,35.46,14.16,8.05,29.26,14.67,42.77,23.84,1.82,1.23,5.24,4.13,6.45,5.17.14.12.03.35-.15.33-5.12-.43-9.48-1.11-14.26-3.16-4.36-1.87-8.92-4.58-13.08-6.9-16.2-9.04-35.11-19.34-47.97-32.66-7.25-7.5-13.74-15.85-19.95-24.22-1.66-1.2-7.76,1.81-7.95-1.56-.16-2.8,1.95-1.54,3.27-1.67,1.65-.16,3.73-1.21,4.67-1.3.68-.07,1.72.39,2.77.34.95-.04,2.32-.17,3.87-.28.92-.07,1.85-.02,2.77.1,6.33.87,11.92,1.09,18.45,2.8,14.68,3.85,25,10.82,37.98,17.76,9.29,4.97,18.84,8.35,28.85,11.49Z"/>
        <path d="M589.35,777.37c1.12.43,2.19.96,3.21,1.59,1.47.91,2.72,2.21.77,1.93-13.88-1.55-27.89-4.52-39.53-12.49-12.22-8.37-20.29-18.81-30.21-29.39-8.82-9.41-25.87-24.8-30.74-36.22-.33-.76-1.4-3.13-.73-3.88.13-.15.36-.18.55-.12l.06.02c.73.22,1.36.69,1.79,1.33,1.15,1.72,2.37,3.43,3.67,5.03,10.21,12.62,23.47,24.24,35.06,35.77,11.24,11.18,19.87,24.05,35.48,29.3,5.86,1.97,13.75,4.46,20.63,7.13Z"/>
        <path d="M413.68,395.09c-.58-.87-2.02-.98-1.75-2.45.93-.08,1.68.48,2.46.87,46.99,23.34,67.6,69.91,97.23,109.63.13.18.26.35.41.51,1.04,1.17,5.06,7.29,5.78,7.13-.72-2.96-2.82-8.81-3.85-11.75-3.76-10.78-8.74-20.98-14.32-30.9-3.42-6.09-7.54-11.95-10.58-18.16.83-1.11,1.86-.26,2.61.53,3.23,3.42,8.09,12.02,10.64,16.35,8.01,13.6,13.95,27.62,18.66,42.69,5.1,16.34,7.35,32.99,16.32,47.83,2.86,4.73,6.3,9.15,9.44,13.7.46-.22.03-.96-.1-1.3-2.62-6.55-5.74-12.91-8.14-19.55-5.21-14.38-8.54-29.42-13.66-43.84-3.19-8.96-7.44-17.48-10.8-26.37-.22-.78-.18-1.79.81-1.86.79,0,1.59,1.58,1.99,2.24,11.12,18.26,16.85,43.35,24.12,63.52,5.29,14.66,12.58,27.83,18.65,42,3.39,7.92,6.38,15.06,10.06,22.9,4.89,10.41,9.97,20.7,14.82,31.1.66,1.4,2.37,3.58,2.69,4.67.14.46.19,1.08-.46.81-.59-.24-3.19-3.29-4.03-4.03-.93-.82-2.09-1.41-2.99-2.27-2.89-2.73-5.18-5.58-7.53-8.77.52,3.19,1.09,6.42,1.4,9.64.94,9.69,1.28,19.39.69,29.08-.03.56.15,8.52-1.39,4.57-1.66-4.28-2.81-12.83-3.46-17.57-2.36-17.18-3.19-39.04-10.73-54.83-9.1-19.05-25.46-35.66-32.44-55.55-3.96-11.28-5.33-23.36-8.41-34.89-2.8.79-4.77-.15-6.87-1.83-.22-.17-.41-.38-.59-.59-14.66-18.28-26.43-38.82-39.93-57.99-3.87-5.49-7.88-11.23-12.55-16.02-.09.64.44,1.02.77,1.5,8.48,12.6,17.63,24.56,25.45,37.65,11.7,19.58,20.44,41.4,32.26,60.64.91,1.48,2.59,3.9,3.18,4.73.06.08-.04.18-.13.14-8.98-4.21-13.77-12.29-18.47-20.65-6.57-11.66-12.04-24.19-18.34-36-10.04-18.83-22.69-38.63-35.3-55.84-8.7-11.86-19.58-25.31-34.29-29.33,6.44,5.43,12.15,11.58,17.52,18.06,18.08,21.83,37.37,46.65,50.68,71.68,3.19,5.99,8.55,16.05,9.24,22.66.36,3.45-.17,7.21.64,10.72.04.16-.17.24-.24.1-1.14-2.34-3.42-7.02-4.75-9.63-11.26-22.05-20.28-40.81-34.94-61.12-8.89-12.32-18.48-25.45-27.84-37.36-5.46-6.95-15.63-18.91-24.66-20.56-1.99-.36-4.93,1.05-4.06-2.27.23-.24.54-.46.87-.55.97-.25,5.7,1.39,6.91,1.89,2.19.89,5.85,3.65,7.47,4.13.8.23,2.87-.13,3.86.14Z"/>
        <path d="M530.71,572.48c.42.26.78-.45,1.48.17,1.55,1.36,8.93,12.9,10.51,15.44,15.97,25.74,14.17,47.97,12.96,77.13-.4,9.78-1.78,19.66-1.41,29.47.55,14.81,4.89,29.2,7.05,43.78.1.69.28,2.33-.2,2.57-.42.2-1.02-.73-1.39-1.2-3.64-4.64-5.51-6.75-7.96-12.49-14.04-32.9.56-66.66-2.4-100.67-1.15-13.25-5.32-26.05-11.57-37.69-.66-.08-.27.71-.19,1.07,4.17,18.21,5.88,31.73,4.05,50.64-.83,8.59-2.7,17.09-3.8,25.64-2.31,17.96-3.16,36.15,1.7,53.76-8.48-10.13-8.25-25.07-7.71-37.68.64-14.93,4.12-29.66,5.25-44.53,1.58-20.68-.61-41.99-9.16-60.95-.98-2.17-6.05-9.27-2.4-10.91,3.34-1.5,2.83,1.42,3.31,2.98.12.4,1.7,3.37,1.88,3.48Z"/>
        <path d="M516.05,680.11l7.33-27.9c4.09-14.52,3.6-30.67.56-45.38-2.56-12.37-8.17-23.7-9.66-36.27.36-1.3,1.27-1.24,1.8-.04.78,1.76,1,5.46,1.55,7.57,4.21,16.41,10.53,29.87,11.41,47.49,1.34,26.71-11.05,49.64-10.89,76.08l-.69,5.09c-.13-1.63-1.36-2.87-1.86-4.28-1.58-4.46-1.16-9.33-.95-13.95,0,0-.72,2.23-1.04,2.1-.17-.07.11-1.95-.09-2.9-2.21-10.59-5.42-21.13-6.58-31.99-2.06-19.35.43-39.44-.34-58.91-1.25-31.72-16.46-65.84-31.38-93.42-2.1-3.89-7.18-10.78-8.32-14.46-.26-.85-.38-1.59-.29-2.47l.7-.43c.89-.25,1.57.48,2.11,1.07,3.44,3.79,8.6,13.69,11.28,18.52,14.15,25.43,28.3,57.8,30.79,87.01,1.65,19.4-.54,38.8.69,58.21.62,9.84,2.67,19.5,3.87,29.26Z"/>
        <path d="M448.03,701.85c-.8.11-.9.02-1.35-.57-10.84-14.27-15.53-23.25-19.17-41.13-3.91-19.22-3.63-32.49,3.08-50.93,11.15-30.65,20.39-46.81,11.81-81.04-1.46-5.81-5.11-13.58-5.84-19.05-.16-1.19-.48-4.17,1.18-4.2,2.03-.05,2.31,4.03,2.93,5.7,8.34,22.47,14.09,40.21,9.02,64.75-4.6,22.22-18.72,42.49-17.79,65.67.74,18.49,6.84,36.59,12.72,53.89l3.42,6.92Z"/>
        <path d="M488.53,414.73c1.32-.4,1.51,1.8,1.99,2.57,2.68,4.33,7.21,7.69,10.64,11.45,12.79,14.01,23.36,29.92,35.24,44.69,19.43,24.16,50.94,56.59,55.64,88.1.91,6.09-.37,10.75-.06,16.56.1,1.82-.7,1.99-1.3.23-1.3-3.8-2.8-6.91-4.16-10.57-5.39-14.52-7.6-24.97-15.98-38.71-13.69-22.48-32-42.47-47.06-64.07-8.36-12-15.91-26.77-25.83-37.28-2.6-2.75-9.26-7.49-9.62-11.08-.07-.71-.18-1.4.51-1.89Z"/>
        <path d="M467.84,506.94c10.18,14.52,14.13,31.92,16.6,49.3,2.82,19.84,2.46,39.98,4.61,59.89,1.26,11.67,3.82,23.13,5.21,34.76s.98,20.58.05,31.86c-.27,3.31.38,7.04-1.59,9.99-.56.13-.7-.49-.95-.79-3.6-4.28-1.61-19.74-1.65-25.69-.11-14.32-3.78-28.63-5.58-42.8-4.22-33.36-1.5-67.78-11.87-100.31-1.33-4.17-3.76-8.58-4.82-12.7-.28-1.09-1.06-2.66,0-3.49Z"/>
        <path d="M460.65,464.51c-1.24,7.22-8.04,12.29-13.77,16.2-11.68,7.99-26.87,17.52-40.5,21.21-13.25,3.58-40.81,7.72-45.55-9.99-1.29-4.82-1.38-11.2,2.88-14.46,1.99.52.84,1.85.91,2.96.56,9.17,2.4,14.05,11.67,16.38,24.11,6.07,49.02-11.64,67.99-23.95,5.22-3.39,9.69-8.11,16.37-8.35Z"/>
        <path d="M586.37,602.78c.03.2-.23.3-.33.13-1.12-1.87-3.95-6.64-5.2-9.15-4.16-8.33-7.12-17.29-11.09-25.72-8.29-17.57-19.74-33.33-29.57-50.01-15.4-26.12-29.52-53.06-44.88-79.22-.84-1.43-5.56-8.32-5.53-9.19s1.05-1.4,1.85-1.17c1.02.29.89,1.71,1.35,2.53,2.29,4.08,5.46,8.3,7.94,12.39,15.34,25.32,29.88,51.17,45.99,76.01,13.68,21.1,29.02,40.45,36.21,65.11,1.83,6.28,2.33,11.97,3.27,18.29Z"/>
        <path d="M466.62,683.97c-.78-3.09-.83-6.11-.72-9.3.54-15.05,1.78-30.13,2.13-45.2.11-4.91-.09-9.84-.03-14.75.51-40.33-1.1-77.59-22-113.29-.7-1.2-2.75-2.59-1.65-3.62,2.57-2.4,5.62,3.72,6.68,5.61,24.66,44,22.58,98.18,20.49,147.06-.31,7.27-.18,27.45-3.94,32.87-.28.41-.28.77-.96.62Z"/>
        <path d="M591.66,463.55c.27.14.16.54-.13.53-2.91-.06-5.86.64-8.71.45-17.43-1.18-40.34-20.59-53.62-31.57-12.12-10.02-18.29-17.44-28.24-29.25-9.73-11.55-21.55-21.7-36.56-25.49-1.47-.88-.38-1.84,1.25-1.61,7.01,1,17.58,7.19,23.36,11.36,13.63,9.81,22.17,22.99,34.74,33.62,19.23,16.26,41.03,30.48,64.27,40.2.94.39,2.54,1.21,3.64,1.78Z"/>
        <path d="M459.08,542.69c1.03-.28,1.48,1.06,1.74,1.76,4.23,11.26.97,35.13-1.68,47.03-4.27,19.19-9.2,32.9-8.32,53.41.68,15.84,5.52,29.06,12.29,43.1.19.4.48.86-.18.87-.26,0-3.81-2.75-4.21-3.15-14.6-14.72-15.41-49.35-11.99-68.42,2.06-11.5,6.7-22.27,9.61-33.52,3.25-12.55,4.73-27.32,2.35-40.03-.08-.44-.12-.92.39-1.06Z"/>
        <path d="M472.52,208.79c.22.12.33.37.34.62.09,4.37,4.3,6.36,7.07,9.18-.11.38-.83.15-1.14.09-19.4-4.09-36.03-18.43-53.18-26.75-15.99-7.76-26.66-1.68-42.98-2.6-10.27-.58-20.85-4.65-30.66-7.55-1.75-.52-8.27-1.61-8.94-2.98-.63-1.29-.16-2.25,1.32-2.04,17.16,2.36,28.74,10.18,47.76,9.05,7.08-.42,12.11-.75,19.27-.68,3.19.03,7.16-.71,10.1-.28,3.17.46,14.41,5.62,16.75,7.79,3.85,3.57,8.18,8.82,13.34,10.85,2.43.96,11.79,4.35,13.9,4.68,2.33.36,4.64-.75,7.05.63Z"/>
        <path d="M401.06,445.05c-.03.12-.76.81-.93.84-1.95.35-.93-5.41-2.22-5.93-1.1,3.26-2.65,6.72-4.77,9.43-3.06,3.93-8.44,6.58-9.9,11.84-.18.66-.26.79.47.82,4.3.2,7.8-6.52,13.06-7.28,5.93-.86,12.78,1.75,18.48,1.3,2.33-.18,13.26-4.94,15.38-6.36s4-4.79,6.89-3.98c.12,1.63-3.15,4.94-4.15,6.37-2.35,3.33-3.05,5.61-6.89,7.84-9.82,5.69-16.58,1.13-26.35.39-7.44-.56-10.49,6.89-17.45,5.88-3.56-.51-5.22-5.22-4.24-8.39,1.98-6.43,7.32-7.94,12.08-11.05,1.87-1.22,2.99-4.34,3.78-6.38.89-2.28.7-5.07,3.27-5.92l-1.42-5.53.86-.55c.48.4.69.97.95,1.51.65,1.35,3.09,8.69,3.09,9.88s.25,4.38,0,5.26Z"/>
        <path d="M248.55,185.1c.21,1.28.64,2.75,1.14,3.95,2.18,5.22,12.58,20.33,17.32,23,.92.52,2,1.16,2.44,1.49,3.2,2.39,13.39-.55,17.48-.76,2.73-.14,5.07.25,7.72.73.46.08,1.14.14.53.69-1.68.09-2.8,1.47-4.32,2.17-7.09,3.28-18.5,5.44-25.31.75-5.46,3.83-13.6,4.77-19.9,2.6-9.86-3.39-13.3-16.47-23.05-20.07-2.87-1.06-7.81-1.59-10.29.57-1.1.96-.94,2.8-2.5,2.75-2.18-3.78,3.28-6.5,6.4-6.92,14.6-1.98,22.08,18.08,33.22,19.19,2.06.2,10.15-.21,11.74-1.22.56-.36.05-.82-.2-1.2-5.19-7.74-10.34-13.73-12.87-23.24-.36-1.34-1.77-4.98.45-4.48Z"/>
        <path d="M506.09,418.72c8.36,8.6,16.52,17.45,23.21,27.45,8.35,12.49,13.37,24.67,25.49,34.46,4.92,3.97,10.94,6.55,15.09,11.39.05.06,0,.16-.08.16-4.42-.51-8.75-2.36-12.62-4.47-21.26-11.57-25.98-34.68-40.44-52.46-7.85-9.65-22.99-27.31-32.83-34.13-1.13-.78-2.41-.37-1.79-2.26s3.06-.13,4.1.65c6.27,4.77,14.22,13.4,19.88,19.21Z"/>
        <path d="M575.89,643.7c2.58-.71,3.7,4.92,4.14,6.61,7.81,30.38-2.2,60.94-.69,91.51.09,1.83-.74,1.98-1.3.23-7.54-23.32,1.43-48.98.06-73.33-.37-6.6-2.62-13.04-3.15-19.29-.1-1.24-.44-5.35.94-5.73Z"/>
        <path d="M541.64,451.54c1.87-.38,2.14,1.36,3.14,2.29,6.27,5.83,14.03,9.65,20.35,15.4,8.51,7.75,14.27,17.52,17.88,28.39,4.15,12.47,9.07,28.2,11.23,41.01.06.35.57,1.09-.2,1.24-.54.11-3.07-4.96-4.35-6.29-.23-.24-.46-.49-.64-.77-11.72-18.84-9.41-42.06-24.29-59.36-5.15-5.99-10.5-8.72-16.44-13.36-2.64-2.07-6.41-5.04-6.69-8.56Z"/>
        <path d="M461.22,384.72c8.92,8.47,17.38,20.68,20.91,32.54,1.93,6.49,4.89,20.77-.83,25.65-2.32,1.98-5.27,1.12-6.17-1.82-1.36-4.41.17-12.08-.08-17.09-.54-10.71-6.47-26.73-13.51-34.87-1.26-1.46-7.17-6.33-7.47-7.26-.13-.39-.21-1.51-.03-1.81.43-.2.87-.39,1.36-.26s5.06,4.19,5.82,4.91Z"/>
        <path d="M214.15,202.33c2.83,5.92,4.72,13.5,8.81,18.71,3.23,4.11,7.53,3.52,12.27,4.03l-8.36-9.72c-.31-1.18.33-1.69,1.5-1.51.88.14,8.37,8.12,10.19,9.46,6.11,4.5,12.17,3.09,19.12,4.37,2.57.48,5.34,1.44,7.78,2.38,1.24.48,7.63,3.08,7.27,4.64-1.39,1.36-3.21.69-4.83.28-3.32-.83-6.54-2.61-9.95-3.37-2.28-.51-4.64-.68-6.96-.93,3.43,3.43,13.34,8.06,15.07,12.45.18.46-.04.62-.5.5-8.7-2.13-14.14-10.77-22.28-14.01,2.59,8.77,9.01,12.8,17.26,15.52,1.36.45,8.34,1.65,7.98,3.23s-5.23.59-6.32.37c-8.82-1.82-16.13-6.59-19.68-15.02-.44-1.05-1.22-4.55-1.7-4.96-2.24-1.9-10.62-1.71-13.89-2.59-4.08-1.1-5.96-4.07-7.89-7.53-2.74-4.9-4.95-10.85-5.9-16.36l1,.05Z"/>
        <path d="M564.34,666.88c.85.85.34,13.2.44,15.51,1.14,27.03,12.71,51.34,11.6,78.17-.02.56-.02,1.12.06,1.68.28,1.93.16,4.11-.1,4.11-.33,0-2.55-7.54-3.21-9.81-.12-.42-.21-.85-.27-1.29-3.67-28.51-14.61-57.85-11.25-86.89.19-1.65,1.45-2.77,2.73-1.49Z"/>
        <path d="M267.26,171.9c-2.46,4.46-4.82,4.85-9.26,6-6,2.23-10.41,6.54-16.22,9.02-2.19.93-8.82,3.84-7.21-.9l7.32-4.06c-7.02.17-14.04-1.61-20.77,1.13-2.74,1.12-10.82,5.91-12.67,8.01-.37.42-1.03,1.42-1.23,1.93-.49,1.28-.08,4.65-1.91,4.28-1.29-.26-1.06-3.56-.85-4.59.73-3.6,5.93-6.5,8.65-8.52,12.64-11.02,27.23-2.97,41.3-10.24,5.07-4.31,3.17-3.67,9.76-3.56,1.42-1.32,5.57.23,3.09,1.5Z"/>
        <path d="M420.69,418.93c-5.47.17-9.57-3.72-14.25-5.91-15.99-7.49-35.11-5.81-50.23-14.98-.78-.48-5.38-3.21-4.58-4.35.8-.23,1.23-.44,2.1-.21,2.46.65,7.08,3.67,9.93,4.82,12.74,5.16,28.39,4.79,41.79,9.75,5.49,2.03,12.71,5.35,15.24,10.87Z"/>
        <path d="M583.35,393.69c-17.24.15-31.98-10.53-48.91-12.27-4.15-.43-8.18-.12-12.26-.36-9.3-.54-21.29-3.22-29.53,2.03-.64.41-2.86,2.78-2.9.62-.05-2.29,5.77-4.51,7.64-5,7.39-1.92,15.5-.36,23.02-.09,12.29.45,19.26.16,31.31,3.75,8.84,2.64,20.22,5.93,28.67,9.19.35.14,3.71,1.47,2.96,2.12Z"/>
        <path d="M446.28,675.2l-4.27-7.82c-4.7-12.47-9.51-27.56-6.85-40.97.32-1.61,2.39-9.06,3.93-9.39.39-.08.71.24.82.58.46,1.45-1.86,9.11-2.05,11.52-1.28,16.16,5.4,30.6,8.4,46.09Z"/>
        <path d="M326.35,161.99c.04.55.63,1.18.68,1.62.11,1.07-4.61,3.45-5.67,4.03-7.28,4.02-14.9,6.23-22.1,9.81-1.51.75-5.68,3.89-6.45,4.09-2.15.56-1.68-1.98-.79-3.26,3.83-5.53,22.36-10.57,29.06-13.71.89-.42,4.48-3.12,5.26-2.57Z"/>
        <path d="M456.1,419.29c-.58.6-3.05-2.09-3.51-2.62-4.51-5.22-14.14-23.49-14.71-30.16-.1-1.13-.06-8.14,2.3-6.16.64.54.62,5.25.94,6.77,2.04,9.79,9.98,18.67,13.82,27.54.64,1.48,1.36,2.96,1.15,4.63Z"/>
        <path d="M313.52,181.7c-.99,1.27-.02,4.7-3.79,2.36-1.54-2.6,3.5-6.67,5.32-8.01,5.16-3.79,11.22-5.89,16.92-8.67,1.65.28,6.57.38,4.93,2.83-6.79,2.1-13.53,4.15-19.39,8.3-.82.58-3.51,2.57-3.99,3.19Z"/>
        <path d="M388.18,174.36l.45,1.24c.11.3,0,.64-.29.8-5.63,3.22-13.64,3.68-19.9,2.58-1.32-.23-7.22-1.64-7.89-2.27-.63-.59-.75-1.24-.01-1.8,1.47-1.12,7.74.28,9.83.39,6.04.34,11.33-1.53,17.22-1.37.26,0,.5.18.59.43Z"/>
        <path d="M414.38,446.63c-2.14-.58-3.36-3.53-4.12-5.52-2.42-6.33-3.43-15.69-1.48-22.18l.74,6.44c.88,7.27,3.45,14.16,4.86,21.25Z"/>
        <path d="M383.77,474.09c4.03,3.56-1.06,10.87-5.49,7.77-1.13-.79-1.85-1.56-2.06-3.58-.41-4.03,4.67-6.73,7.55-4.19ZM380.57,477.01c-.25-.69-.38-1-.93-1.15-.45-.12-.92-.1-1.16.3-.99,1.67,1.02,3.38,2.41,4.12.54-.99,2.52-2.47,2.24-3.61-.25-.61-.74-.86-1.31-.96-.68-.13-1.04.48-1.25,1.3Z"/>
        <path d="M429.8,444.18c-.48.03-.95.05-1.4-.17-1.26-.62-3.92-9.71-5.61-11.92-2.61-3.4-7.79-3.08-9.81-6.83l6.2,3.09c4.5,2.5,6.32,5.2,8.47,9.76.42.89,2.68,5.55,2.15,6.08Z"/>
      </g>
      <g>
        <path d="M100.12,272.25c-8.37,6.92-27.02,33.97-38.05,29.75-6.76-3.52,3.07-32.7,7.52-36.3.45-.28,1.36-.19,1.23.55-4.27,9.37-5.77,20.43-5.96,30.69.72.74,6.67-4.13,7.54-4.9,22.83-20.4,41.35-47.61,69.47-61.65,1.48-.73,2.02-.13.71,1.06-13.16,14.54-29.33,26.11-42.46,40.8Z"/>
        <path d="M137.64,223.69c-9.91,7.49-24.02,8.4-33.86,15.45-.33.24-.67.48-1.04.67-4.77,2.45-18.56,17.69-21.65,11.35-.1-.2-.13-.43-.12-.65.15-2.27,1.43-12.01,3.83-9.09.48.05-1.82,7.96-.5,7.13,15.41-12.17,32.95-24.16,53.21-25.2.18,0,.27.23.13.34Z"/>
        <path d="M181.95,203.69c.23.82-.21.59-.45.8-7.21,6.35-18.51,9.56-27.77,12.53-5.13,1.64-22.08,7.63-22.54-2.03-.08-1.59,1.4-2.64,2.35-1.27,1.26,1.81.67,3.05,4.05,2.95,10.99-.32,25.94-9.32,37.35-11.76,2.43-.52,4.7-.41,7.01-1.22Z"/>
        <path d="M205.78,171.43c.6,3.02,3.07,3.09,2.02,6.4-.33,1.05-1.19,1.7-1.57,2.63-.74,1.81-2.81,8.68-4.3,9.37-1.86.87-2.23-1.25-2.02-2.72.36-2.51,3.04-10.6,4.12-13.07.37-.83,1.01-2.08,1.76-2.62Z"/>
        <path d="M77.35,242.29l.78.78c-1.9,2.98-2.97,6.65-3.99,10.04-.48,1.6-1.25,8.59-3.44,8.03-2.87-.74-.17-8.1.54-9.87s4.2-8.83,6.1-8.98Z"/>
        <path d="M173.18,220.16l-29.09,3.51c-.23-1.77,2.39-2.39,3.78-2.71,3.83-.89,20.11-2.37,23.66-1.76.56.1,1.48.32,1.66.96Z"/>
        <path d="M441.01,176.23c0,.05-.04.09-.09.07-4.22-1.24-8.96-2.68-13.38-2.79-1.29-.03-2.48.41-3.73.25-.13-.02-.19-.17-.11-.27.59-.74,1.16-2.25,1.65-2.66,1-.83,7.46.06,9.1.34.96.17,5.23,1.18,5.73,1.63.66.6.73,2.43.84,3.42Z"/>
        <path d="M113.94,225.41c-.14-.22,0-1.09.16-1.4.6-1.13,11.53-4.46,13.31-4.57.89-.05,3.36-.11,3.67.93.6,2.06-5.18,2.46-6.3,2.75-1.44.37-10.35,3.04-10.85,2.28Z"/>
        <path d="M198.07,180.9l-3.85,14.92c-3.24.55-2.43-3.75-1.95-5.82.55-2.4,3-6.48,4.68-8.29.35-.37.36-.98,1.13-.8Z"/>
        <path d="M440.48,160.9c.08,0,.1.11.04.16-3.41,2.91-8.93,3.34-13.17,4.77.35-.57.59-1.49,1.04-1.94,1.17-1.19,9.66-3.17,12.09-2.98Z"/>
      </g>
    </g>
    <g>
      <path d="M85.54,324.63c.1.59-.17,1.03-.39,1.54-9.15,20.97-27,27.33-44.1,40.03-4.93,3.66-8.46,7.24-12.64,11.55-6.21,6.4-20.52,18.49-21.39,27.34-1.44,14.7,9.56,20.51,18.93,28.74,3.03,2.66,15.27,12.9,16.2,15.7.69,2.06.37,3.93-2.19,3.25-1.74-.46-2.58-2.64-3.84-3.88-8.9-8.75-27.91-20.86-32.08-32.07-6.33-17.02,5.04-24.82,15.11-35.54,1.17-1.24,2.25-3.12,3.46-4.43,13.52-14.66,31.18-23.79,47.06-35.32,7.04-5.11,7.36-7.96,12.38-13.92.33-.39,3.11-3.4,3.49-2.99Z"/>
      <path d="M57.42,410.98c5.46-.56,20.14-.34,21.37,6.82.24,1.4.23,3.28-.66,4.43-1.66,1.87-4.41,2.54-5.22,2.85-4.91,1.82-7.77-.69-12.35-.08-2.66.36-4.15,1.84-6.39,2.72-4.42,1.75-10.11,1.62-14.1-1.06-.64-.43-1.17-1.01-1.64-1.63-.6-.79-1.15-1.17-1.89-1.83s-1.29-1.66-1.27-2.68c.03-1.17.62-2.18,1.76-2.92,5.15-3.35,14.28-5.99,20.38-6.61Z"/>
      <path d="M78.56,326.42c-.29.34.48,2.54-.95,3.44-2.36.54-4.5,2.65-6.93,2.17l-.41.31c-.41.58.39,1.61.13,2.56-.88,3.18-9.54.15-7.77-3.87.24-.55,1.04-.59,1.16-.99.13-.46-.66-1.44-.72-2.4-.23-3.49,1.23-4.77,4.59-3.69-.04-1.09.14-2.31,1.4-2.47-2.5-3.63.19-5.79,3.86-3.84-.43-1.89.83-3.63,2.82-3.01,2.61.81,6.97,9.64,4.34,11.4-.43.29-1.43.31-1.51.41Z"/>
      <path d="M114.29,397.9c-3.79-1.76-6.07-4.76-10.04-6.61-11.1-5.17-22.3-5.96-33.87-2.07-.72.24-2.73,1.78-2.72.09,0-.62,1.15-1.51,1.65-1.87,8.93-6.39,31.65-3.55,40.4,2.6,3.05,2.15,4.28,4.05,4.59,7.85Z"/>
      <path d="M114.86,401.78c2.14-.37,1.29,4.47,1.01,5.59-2.64,10.47-15.18,18.86-24.88,22.08l-.54-.87c7.19-5.72,16-10.36,20.4-18.87.74-1.43,2.65-7.69,4.02-7.93Z"/>
      <path d="M43.47,398.6c-4.36,1.87-18.43,1.63-20.14,6.68-1.17,3.46,2,7.31,1.56,10.85-5.9-3.7-7.22-12.25.17-15.43,2.31-.99,14.79-3.04,17.19-2.82.52.05,1.1.1,1.22.72Z"/>
      <g>
        <path d="M100.27,442.08c2.13-1.04,2.25,1.08,2.12,2.79,1.72.69,2.95-1.06,4.38.35.99.97.66,2.96,1.19,3.37.69.54,1.43-.42,1.95-.43.98-.01,1.42,1.56,1.77,1.63.41.08.7-.62,1.2-.52,1.23.24,2.13,1.69,2.99,2.28.91.62,2.67,1.07,3.01,2.07l.67.03c.54-2.24,2.07-.11,3.34-1.7.98,1.09.85,1.6,2.58,1.39l.63,2.07c1.86,1.07,2.97-2.42,4.87-.38.69.75,1.67,7.15,2.08,8.79.36,1.48,2.41,5.27,1.09,6.34-2.33,1.89-3.67-3.86-4.65-4.19-2.01-.68-3.78,2.63-5.56-1.81-2.02,1.81-3.69.92-3.68-1.75-1.37,1.67-2,.63-3.31.71-.71.04-1.3.85-2.05.65-1.05-.28-2.53-2.42-2.88-3.46-.77.58-1.3,1.84-2.37,1.7-1.38-.18-1.2-1.56-1.64-1.9-.16-.12-3.03-.03-3.9-.31s-1.88-1.83-2.25-1.86c-1.32-.11-1.32,3.08-3.84,2.73-1.64-.23-1.76-2.68-2.32-3.86-2.57,1.62-3.78-1.28-4.72-1.43-1.47-.23-2.44,1.02-3.58,1.34-1.35.39-2.63.06-3.75.08-.24,0-.2.61-.63.81-2.25,1.05-1.64-1.81-1.68-3.26-1.13-.2-.56,1.15-1.41,1.91-1.93,1.73-2.69-.93-3.84-1.92-.13.78-.96,2.52-1.73,2.67-.84.16-1.15-.44-1.6-.44-.34,0-.69.45-1.05.45s-.72-.47-1.04-.45c-1.58.08-2.77,2.35-4,2.5-1.33.16-1.77-1.02-2.4-1.17-.18-.04-2.44.27-2.67.36-.81.31-.63,1.2-1.03,1.6-.25.25-.82.25-1.1.48-.38.32-.56.87-.81,1.02-1.14.69-2.79-.14-3.08.32-.73,1.72-.65,5.88-2.09,7.04-.16.13-3.06,1.65-3.24,1.68-.58.08-1.11-.29-1.68-.29-1.1,0-1.8.71-2.98-.35-.41,1.7.03,6.36-.74,7.5-.9,1.33-1.44-.24-2.31.11-.37.15-2.24,2.25-2.39,2.56-.45.97.06,2.1-.23,2.93-.2.58-1.07.31-1.01,1.06.09,1.09,1.08,2.44,1.33,3.62.3,1.4.24,3.04.6,4.66.52,2.34,1.73,4.56,1.58,7.01-.91,1.26-2.26-6.99-2.54-7.27-.19-.19-.83-.15-1.13-.43-.76-.69-1.14-1.57-1.75-2.12-.68-.62-2.4-.8-2.6-2.35-.09-.73.54-1.01.57-1.59.07-1.29-.9-3.24-.92-4.6-.01-.73.28-2.21.34-3.18.15-2.49.85-5.7,1.06-8.07.09-1.05-.48-2.07-.41-3.15.06-.93,1.04-4.43,2.49-3.53.7.44.32,1.78,1.04,1.95.09-1.49.6-6.06,2.84-4.32l1.02,3.27c-.14-1.87,1.27-3.37,1.94-4.9.37-.84.05-2.15,1.05-2.81.73-.31.59.93,1.05,1.05s1.26-1.07,2.12-1.38c.73-.26,2.81-.81,2.64.28l.48.04c1.51-1.44.99-4.53,2.64-5.77,1.51-1.13,1.89.27,3.42.05.88-.57,1.83-2.7,2.33-3.07s1.19-.27,1.57-.53c1.07-.72,2.92-2.45,4.22-2.82.91-.26,1.41.79,2.11.42.89-.47.86-2.54,2.91-1.9,1.11.35,1.2,1.65,3.24-.06.19-.05.14.56.24.61,1.78,1.02,3.31-3.71,4.86-1.16.43.71.01,1.71.85,1.59,1.49-.39,1.59-2.06,2.17-2.48s3.12-1.38,3.65-.44l.32,1.87c.94.17,1-.95,1.56-1.41,1.47-1.2,2.27.13,3.44-.05.6-.09,1.14-.76,1.83-.83,1.85-.2,1.23,2.24,2.98,2.29.22-1.01.72-3.06,1.95-3.17,1.49.04,2.09,1.61,2.26,2.83Z"/>
        <path d="M44.46,566.16c.03.8-.5,1.48-1.27,1.69-1.44.38-2.02-.58-2.54-2.18-1.56-4.8-.7-11.63,1.36-16.2.88-1.94,4.62-6.67,4.63-7.99.03-3.08-2.1-10.89-2.92-14.28-1.16-4.83-2.66-9.2-3.64-14.24-.39-2.01-1.93-8.59-1.83-10.08.04-.59.47-.84.84-1.19,1.12,0,2.7,5.6,3.07,6.74,1.94,5.93,3.99,12.51,5.69,18.5.98,3.46,1.68,7.01,2.45,10.51,6.74-6.7,14.49-11.85,23.19-15.72,5.4-2.4,13.5-5.63,19.13-7.17,6.13-1.68,12.38-4.24,18.29-6.96,6.67-3.07,13.37-7.42,18.28-12.92,4.21-4.71,3.24-6.81,1.74-12.62-1.7-.79-3.15-2.09-4.84-2.88-14.75-6.89-36.5-9.44-52.67-8.36-6.99.47-17.78,4.3-19.79,11.76-5.79-.29-9.83,1.45-10.88,7.53-1.78-1.72.38-5.95,1.92-7.38,1.93-1.79,4.81-1.71,6.82-3,1.18-.75,2.71-3.16,4.07-4.34,9.49-8.19,22.93-7.65,34.69-7.02,11.88.64,22.06,2.26,33.22,6.39,11.06,4.09,19.47,11.94,9.55,23.06-21.27,23.86-61.38,19.37-81.66,44.55-5.35,6.65-7.99,11.27-7.56,20.12.04.89.59,2.46.63,3.67Z"/>
        <path d="M50.84,530.42c-.43-.4,2.44-2.97,2.83-3.3,3.41-2.81,8.29-5.62,12.24-7.57.06-.68-1.08-.29-1.42-.19-2.58.71-9.57,4.35-11.45,4.32-.44,0-1.07-.48-1.13-.84-.16-.9,3.19-2.29,3.95-2.65,4.81-2.24,10.31-4.12,15.66-4.15-.05-.63.36-1.07-.53-1.06-2.25,0-5.31,1.19-7.76,1.37-1.37.1-5.05.56-3.63-1.52l12.26-1.94v-1.03c-1.3,0-2.01-.78-1.72-2.08.81-.72,2.11.01,2.57-.09.49-.11.57-1.12,1.14-1.31.83-.28,3.33,1.07,4.85,1.05,3.03-.05,12.13-.81,14.38-2.47.93-.69,1.78-3.19,2.8-3.18.3,0,2.52,2.81,3.05,3.28.19.61.74,1.34.47,1.99-.88,2.12-8.2,3.09-10.54,3.85-10.64,3.45-21.58,7.53-31.12,13.4-.9.55-6.21,4.79-6.9,4.14Z"/>
        <path d="M124.45,482.74c-1.3.4-2.26.76-3.69.73-8.85-.2-18.5-2.62-27.68-2.84-5.57-.13-11.97.34-17.38,1.58-11.13,2.55-21.44,10.98-29.78,18.42.68-3.03,4.12-5.74,6.49-7.7,20.15-16.64,33.64-15.2,58.54-12.63,3.24.33,6.93.23,10.12.74.4.06,4.18.66,3.37,1.71Z"/>
        <path d="M78.53,485.55c.37,3.07-1.05,5.89-1.65,8.69-.4,1.86-1.33,9.03-2.37,9.93-.29.25-.82-.04-.85,0-.15.19-.11,1.01-.44,1.49-1.96,2.89-9.71,5.96-13.1,6.21-.66.05-2.03-.33-2.31-.2s-1.28,1.72-1.92,2.26c-1.59,1.36-5.25,3.64-7.35,3.54-.99-.05-2.82-.61-2.12-1.79.44-.75,3.49-1.22,4.63-1.68.95-.38,4.77-2.54,5.21-3.22.49-.76-.51-1.55-.52-2.58-.01-1.44,1.44-9.15,1.89-10.76.5-1.77,1.15-2.01,2.47-3.14l-2.28,16.12c5.47-1.51,10.46-4.18,15.43-6.83.43-.48.56-5.24.79-6.57.34-1.97,2.29-8.92,3.14-10.53.27-.52.64-1.06,1.32-.95Z"/>
        <path d="M116.74,500.62c.1,3.33-3.35,4.12-5.96,4.73-5.78,1.37-10.91,1.58-13.67-4.56,1.63-1.61,3.22,1.33,4.89,1.77,4.82,1.26,10.01-2.04,14.74-1.94Z"/>
        <path d="M93.95,499.92c-.23,4.55-5.29,6.75-9.29,7-1.47.09-2.58-.24-3.85-.27-2.16-.06-4.97,1.13-5.08-2.52.99-.3,1.82.63,2.61.66,1.74.06,7.16-.72,8.89-1.25,2.53-.79,4.19-2.94,6.73-3.61Z"/>
        <path d="M97.81,483.79c.3,3.14-.39,6.2-.7,9.29-.24,2.46.54,5.67-1.58,7.53-1.17.02-.93-8.55-.83-9.59.06-.63,1.7-8.82,3.11-7.23Z"/>
        <path d="M49.61,500.63c1.59,2.43-.49,5.58-1.13,7.98-.28,1.04-.76,6.03-1.68,6.03-1.33-.94-.96-3.15-.78-4.63s2.13-9.36,3.58-9.38Z"/>
        <path d="M117.09,499.22c-.32-.38,1.23-8.67,1.57-9.82.21-.73.44-1.77,1.23-2.1-.02,2.97-.47,6.24-1.22,9.12-.24.92-.33,2.83-1.58,2.8Z"/>
      </g>
    </g>
    <g>
      <path d="M257.67,605.79c1.41-.68,4.68,1.9,4.05,3.15-1.03,2.05-4.79-1.36-4.05-3.15Z"/>
      <g>
        <path d="M212.1,478.88l1.38-3c.01-3.54-.89-7.18.03-10.67,2.4.03,1.49,6.4,1.75,6.66l1.07-.15.28-.43c.04-4.59-.84-9.25.06-13.79,1.43-.32,1.58,1.27,1.71,2.32.76,6.28.03,12.92,1.97,19.06l1.27-1.22c-.53-2.86-2.9-11.06,1.26-12.02,3.67-.85,4.2,2.02,5,4.67.15.5-.22.62.7.51l.34-1.24h.72c.17-1.52-2.47-7.65.18-7.9,2.26-.21,1.48,4.02,3.67,4.58.11-1.15-.18-2.5.07-3.61.38-1.64,1.91-4.45,2.31-5.76s-.42-3.1,1.66-3.24c2.05.16,1.05,3.95,2.97,4.19-.07-1.75-2.14-7.7-.35-8.6.95-.44,1.58-.1,2.03.79,1.13,2.24.91,7.43,1.46,10.04,1.01.64,2.14.93,2.14-.63s-2.86-10.33-1.77-11.06c.37-.24,1.11,0,1.32.6,1.02,2.88,1.09,7.51,1.84,10.61l1.4-.18c-.51-2.43-1.85-6.36-1.4-8.76.17-.93,1.08-1.29,1.58-.54.39.58.71,7.29,1.02,8.8.22,1.07.52,1.95,1.6,2.43.16-1.27-1.3-5.4.22-5.93s1.81,1.26,1.89,2.42c.53-.92,2.66-.6,2.79-.71.06-.06.05-1.13.27-1.65.49-1.1,2.13-1.3,2.16-3.1l1.78.21c.09-.81-.69-1.42-.61-2.23.21-2.07,1.83-.88,2.51-.92.18,0,1.07-2.54,2.87-1.1.78.63.33,1.75.57,2.58.42,1.43,1.32,2.85,1.32,4.46.6.09.38-.83.35-1.22-.09-1.18-.65-2.05,0-3.34,1.5-.14.87,2,1.75,2.45,0-1.67-.74-3.43-.73-5.08.01-1.27.58-2.83.54-4.21-.05-1.64-.75-3.06-.51-4.91.06-.48.18-1.02.7-.52l2.81,9.82c1.18.45.3-1.48,1.22-1.05.68.32,1.96,3.64,1.94,4.56l.99-.41c.27-.41.01-1.53-.1-2.06-.52-2.48-5.05-11.24-4-12.9.52-.82,2.07.02,2.35.88l2.85,7.48c-.42-3.85-2.59-9.95,3.86-8.06.28-3,2-1.02,3.86-1.06.13-.11-1.05-2.73.22-3.11,1.44-.49,2.45,1.17,2.58,1.01-.73-2.1-1.73-5.75,1.75-4.56.37-.38-2.05-3.84-.5-4.53,2.56-.62,6.71,7.71,7.43,9.7s.27,5.28,2.88,3.94c-.52-1.73-.69-3.65-1.56-5.27-.6-1.11-2.24-3.43-3.05-4.66-.92-1.4-2.82-3.21-3.48-4.59-1.92-4.02.93-1.93,1.97-2.09.44-.07,1.86-1.64,3.32-.92l-2.1-4.55,1.75,1.05.88-2.44,2,1.84,2.73,6.91c-.15-.96.23-2.4,0-3.26-.09-.35-.79-.4-1.01-.8-1.07-1.9-4.29-11.34-4.26-13.3s1.67-2.84,3.43-2.01c1.46.69,3.35,5.83,3.94,7.45.26.19,1-.27,1.05-.53.15-.71-5.86-7.99-2.27-8.26,1.25-.09,2.1,1.34,2.8,2.13.26.05.22-.34.17-.52-.66-2.12-4.66-7.3-4.55-9.1.2-3.23,4.13-1.75,5.6-.2l-2.79-5.44c1.15-2.7,3.15-.52,4.37.88.2-1.05-.96-2.37-1.4-3.51-.77-2-3.74-9.49-3.72-11.04.02-1.97,1.4-2.41,3.1-1.66.99.44,3.62,4.14,3.95,5.34.9-.14,1.19-.79,2.27-.74,2.8.14,6.01,7.19,2.67,8.62l1.72,3.19c1.87-.34,3.5.06,4.74,1.55.34-.48-.04-.89.87-.7l2.64,4.2.38-1.09c2.61-1.39,2.73,1.73,3.8,2.51s1.9.37,3.16,2.1c1.64,2.25,1.63,5.76,4.05,6.99l.06-2.23c.28-.85,1.28-.71,1.91-.24.1.07,1.65,1.66,1.72,1.77.93,1.37,1.02,4.98,1.94,6.66,1.02.25.5-.93,1.57-.91.86.01.82.84,1.12.91,1.33.3,3.18-.38,4.58.26s1.36,3.04,1.92,3.52c.42.36,1.41.12,2.19,1.14,1.16,1.52,2.46,8.66,1.52,10.28-.28.49-1.03.56-.99.75,1.66,2.51,5.45,5.09,2.1,7.89,1.72.14,3.07,2.15.88,2.81-1.56-.46-2.43-1.57-1.59-3.15-1.38-.38-1.68.74-2.48,1.2-2.51,1.41-3.48-.62-5.34-.16-.17.04-1.51,2.24-2.16,2.82-1.11,1-3.42,1.39-1.76,3.14,1.13-1.44,2.04-.22,3.33,0-1.36-1.62-.51-5.2,1.57-5.29,3.03-.13,8.03,1.78,6.31,5.64-1.1,2.46-4.68-.25-5.77.71,1.68,2.24.31,1.82-.67,2.66-.47.41-.49.91-1.24,1.24-.82.36-1.73-.11-1.89,0-.1.06-.86,1.71-1.46,1.89,1.26,1.64,5.94,1.92,6.25,3.93.1.66-1.82,3.86-2.4,4.12-1.57.71-4.02-1.25-4.55,0,2.59.65,5.17,1.91,2.46,4.56-.02.57,5.72.57,4.23,4.23-1.34,3.28-4.65-.56-5.96,3.16-.71,2.01.79,2.64-.03,4.35,4.49-.32,5.78,4.46.35,3.86.22,1.44-.55,2.59-1.61,3.49-1.54-1.17-2.03-2.42-4.35-1.73,1.32,1.24,3.41,2.76,1.75,4.55,1.64.45,6.27.92,7.18,2.11,1.34,1.75-.07,3.86-2.21,3.56l-.34.89c.04,1.52,3.62,1.59,3.42,4.8-.18,2.9-3.22,3.6-5.6,2.68.86,2.65-2.08,2.03-3.15,3.68-.29.74,1,.48,1.6.85,1.69,1.03.43,3.13-1.19,3.34-1,.13-3.42-1.13-3.91.01,1.71,1.52,5.97,1.01,5.61,4.17-.1.87-.84,1.29-.95,1.84-.08.4.29.92.11,1.53-.27.93-1.08.74-1.27,1.39,2.02.44,4.69.94,4.14,3.6-.44,2.11-2.82,1.44-3.07,1.68-.35.34-.04,3.61-3.53,2.78,1.48,2.02-.18,3.57-2.45,3.15.32.93.31,1.87-.34,2.65-.28.34-1.64.58-1.06,1.19.65.7,5.08-.07,4.06,3.17-.8,2.57-4.51.57-4.73.72-.06.04-.28.84-.72,1.21-.77.65-1.73,1.04-2.47,1.74,2.46,1.71,3.89,4.07-.36,4.03,1.28,6.25-8.59-.28-9.11.35l-.35,3.5c2.13-.57,2.32-.67,4.47-.09,1.69.46,7.37,1.96,4.48,4.31-2.12,1.72-7.86-1.73-10.35-2.11l.03,1.72c2.41.26,4.05,1.61,5.57,3.37-2.39,3.14-6.64-.97-9.1,1.05,2.39,1.38,7.95.47,5.6,4.73,7.93,2.67,4.53,6.85-2.1,3.51,1.05,2.57-.9,2.81-1.56,3.87-.62,1-1.21,2.22-1.94,3.31-1,1.49-1.34.38.02,2.47-.65,3.38-3.03,1.17-4.41,1.23-.63.03-1.11.79-1.81.96-2.09.5-3.83-.31-5.71-.98l-1.05,1.93c0,.32,4.03,1.91,1.75,4.56-.22.26-2.24,2.07-2.44,2.13-1.32.44-2.2-.62-3.5-.55-.33,3.33-3.02,1.49-4.59,1.87-1.02.25-.91,2.07-3.14,1.47-.58-.16-2.16-1.52-2.45-1.25l-.72,2.26c2.11.98,1.82,4.27-.31,4.95-2.64.84-4.21-1.28-6.33-2.3-.37,1.33,1.25,1.19,1.35,2.34.04.46-.83,1.37-1.22,1.44-1.16.22-4.59-2.1-4.85-2.03-.32.08-.42.94-.97,1.17-.83.36-1.84.21-2.72.23l3.84,3.64c-.28,1-1.7.73-2.01.99-.17.14-.13.82-.4,1.16-.1.12-2.24,1.85-2.37,1.93-1.04.62-2.6.07-3.19.41-.38.22-1.02,2.53-2.51,2.94-1.24.34-7.61-3.42-9.01-4.34l-2.22.99c-.81,1.16,7.9,2.36,6.61,6.08-.31.9-3.85,1.06-4.86,1.63.5,1.42.17,3.05-.32,4.4-1.3.94-5-1.46-6.1-2.36s-2.79-3.6-4.18-3.4c-.52.07-1.85.95-1.11,1.35,2.06.19,3.43,1.82,4.93,2.76,1.68,1.05,3.86.64,2.74,3.89s-3.85,1.36-5.67.44c-.6-.31-.56-.66-1.15.1l2.05,1.47c.21,3.02-2.17,2.06-4.14,1.51-.16,1.15-1.77,3.21-2.91,3.09-1.37-.14-7.06-4.02-6.23-5.2.89-.96,3.62,1.36,3.85.17.11-.56-1.84-2.15-2.33-2.57l-5.73,3.8c1.56-.04,7.36,4.07,7.66,5.16.33,1.21-.85,2.24-2.06,2.21-.11.1,1.3,1.71.55,2.82-1.81,1.5-3.01-.82-4.75-1.07-.07.74-1.76,3.55-2.26,3.88-1.21.8-3.15-.47-3.36.51-.11.54,2.13,2.03.36,4.21s-6.12-.08-7.55-1.93c-1.28,1.81-2.69.9-4.38.35.85,1.11,6.04,5.23,3.98,6.69-2.38,1.19-3.5-.87-5.38-1.79.19,2.9-3.35.54-3.51.71-.02,1.41,1.55,3.07.73,4.32l-.7.45c-1.14.85-3.67-1.56-4.06-1.55-.45,0-1.36,2.29-3.69,1.54-.65-.21-.98-1.01-1.73-.9-.24.27.43,3.46.74,3.99.76,1.32,6.15,4.17,4.72,6.19-1.12,1.59-4.54-1.69-5.45-2.48.37,2.68-.8,4.2-3.51,3.16.24,1.91-.52,2.7-2.46,2.45-.64.57,2.25,2.43.13,3.82-1.02.67-2.22-.11-3.11-.66-.78.04-.06,2.97-1.83,3.44-1.11.3-1.97-.87-2.69-.64-.64.21-.41,1.99-2.17,2.09-.96.05-1.61-.85-2.6-.7.45,1.27-1.29,2-1.36,2.3-.16.71,1.16,2.96-1,3.58-1.87.54-3.09-.26-4.66-.97.11.79.47,1.32.29,2.19-.04.19-1.5,3.23-1.68,3.52-.21.35-.97.43-1.06.79-.17.69,1.54,1.45,0,2.81-2.77,2.46-4.52-1.49-5.81-1.48-.59,0-3.02,1.62-2.31,2.52s3.45,1.88,2.67,3.66c-1.19,2.73-4.6-.87-6.49-1.04.28,1.42-.61,3.08-2.19,2.75-.48-.1-1.01-.67-1.47-.67-.21,0-.35.88-.97,1.17-.83.39-3.56.73-4.41.35-.78-.36-.59-1.52-1.83-1.14.42.73,4.24,4.2,3.5,4.9-2.19.2-3.1-2.34-4.55-3.5l-.07,2.74-2.74.42c-.35.31,2.27,3.16.96,4.47-1.11,1.11-2.92-.47-4.12-.61.45.77,4.79,5.02,4.2,5.6-1.94-.95-4.03-1.67-5.6-3.15.86,2.08-.49,2.7-1.98,3.8l-1.7-.94-1.35.97-2.15-2.07c-1.23-.07,1,3.03.88,3.14l-3.15-1.75c.35,1.49,1.42,2.51,1.05,4.2-1.57.44-1.81-1.24-2.44-1.58-1.56-.84-1.39.58-2.28,1.24-2.64,1.98-6.63-2.84-8.25-1.96-.62.34-.44,1.32-1.22,1.29-1.82-.08-4.01-2.43-4.26-2.46-.59-.09-1.08,1.34-2.23-.03.39,3.51-1.85,1.12-3.16,0,.66,1.32-.27,2.26-.32,2.96s.56,1.17.07,2.22l-.63.47c-2.3.15-2.41-2.53-3.31-3.02-.39-.21-1.31.59-2.32-.14s-.78-3.09-2.25-3.18c-.42.48,1.84,4.12,1.68,5.35-.25,1.96-2.23,2.89-3.81,1.5-1.8-1.58-.84-4.44-1.92-5.79-.09-.12-1.82-1.55-1.93-1.61-.72-.34-1.3.39-2.26-.5-1.13-1.05-1.46-3.62-2.09-4.23-.52-.5-1.36-.22-1.94-.51-.49-.24-.58-.97-.9-1.21-.65-.49-3.41-2.39-4.01-1.77.33,1.59-.89,4.4-2.8,3.51l-.52,1.75-5.65-6.98-2.03,1.01c-.62-.23-.72-1.09-1.17-1.4-.49-.33-2.77.28-2.88.39-.22.23.4,2.3-1.07,2.08-.13-.5-.91-2.57-1.14-2.72-.39-.27-1.57-.06-1.95-.51-.98-1.18.01-5.94-2.88-5,.57.8,1.75,3.38,1.62,4.22-.05.37-.62.57-.72.85-.15.41.25.94,0,1.42-.32.62-1.63.52-1.25,1.75-1.33,1.27-3.43-4.99-3.51-5.96-.47-.08-.6,1.42-.6,1.67,0,.81.39,1.5.22,2.3l-1.03.41c-1.74-.94-2.18-5.8-2.97-6.15-.13-.06-.88-.13-.88.18-.04,1.6,1.41,3.85.38,5.28-1.72,2.38-2.75-4.32-3.07-5.02-.28-.61-1.03-.97-1.52-2.35-1.17-3.34-.12-7-4.19-8.25l.7,2.45-1.23-1.75c-.17,4.29-2.25,1.79-2.59-.91-.16-1.29.48-3.28-.74-3.99l.12,2.37c-1.58.94-2.48,2.36-2.75,4.29-2.23-1.72-1.44-4.87-1.58-7.36l-.52,1.05-.87-1.4c.14,1.66.02,4.12-2.21,3.44-1.64-.5-1.12-5.01-3.73-5.4-1.37-.2-3.28.97-3.72-1.54-.24-1.34,2.84-7.02,3.52-8.78,2.39-6.24,3.25-10.48,7.4-16.09,1.62-2.18,4.39-5.98,7.34-5.95,3.46.03.64,5.29.52,6.97l2.44-2.66h1.07c1.23,1.42.58,3.15.35,4.76.77.16.79-.38,1.06-.86.69-1.23.91-2.81,2.27-3.69.97-.39.3,1.5.54,1.74l3.14,1.06c-.17-2.43,1.59-4.11,2.37-5.87,1.35-3.04,1.77-6.23,4.99-8.16.2,4.71-2.22,9.05-2.8,13.67,2.29-2.29,2.58-6.28,6.66-6.66-.17,1.51.4,2.88.38,4.38s-.73,3.66-.74,5.25c0,1.48.55.94,1.45.3-.73-4.66-.54-10.67,1.31-15.08.61-1.45,1.69-3.59,3.54-3.24l.73,3.48,1.04-1.59c.32-.35.68-.15.89.18,1.06,1.66-.04,8.2-.16,10.31.19.63,1.36.52,1.93.89.64.42.58,1.3,1.2,1.42.17-4.26-1.42-10.56.44-14.46.19-.39,1.18-2.06,1.66-1.66.43,1.16,1.11,2.01,1.51,3.23.52,1.61.17,4.54,1.65,4.83-.22-3.23-1.18-7.08.76-9.93,1.6-2.35,2.49-1.14,3.4-1.68.22-.13.66-3.37.93-4.15.52-1.53,1.76-2.82,2.25-4.41.46-.31.9-.26,1.24.2.12.16,1.37,3.32,1.51,3.75,1.07,3.41.68,6.82,1.85,10l1.38,1.32c.33-3.69.41-8.09,1.09-11.71,1.44-7.73,3.19-2.3,3.47,1.89,2.27-.27,3.48-2.8,5.95-1.4-.31-1.5-.9-7.5.34-8.25,1.74-1.06,1.73,2.86,2.29,3.69.5-1.07,2.06-1.12,2.62-1.59,1.24-1.04.16-1.06,2.78-2.48,1.18-.64,1.69-1.65,3.54-1.19-.3-1.73.36-3.44.37-5.07s-.85-4.87-.2-6.15c.35-.68,1.45-.59,1.76-1.05.28-.41.09-1.31.5-1.6.27-.18,3.22-.57,3.54-.35.56.39.28,1.82,1.03,1.95-.17-2.73-2.22-8.33-.36-10.61s4.28.97,6.68.1c-.19-3.7-.65-8.71.51-12.28.74-2.26,2.53-3.03,4.74-2.09-.44-1.54.94-2.41,1.08-3.67.18-1.66-.74-3.68-.37-5.61.19-1,1.28-1.19,1.4-2.13.13-1.01-1.89-6.22,1.15-5.36.94.27.93,1.42,1.65,1.69.52-1.2-.06-4.78,1.28-5.22,1.63-.53,1.58,1.46,2.57,2.06.01-4.22-3.88-11.36,0-14.56,2.16-1.78,4.13-.68,5.97.89v-5.08c0-.12,1.21-1.22,1.5-1.32.62-.23,1.43.24,1.64.09.29-.2.48-4.56,2.63-2.08l.89,2.78c-.02-2.44-.62-5.12-.71-7.52-.05-1.2-.28-5.17.51-5.83,2.9-2.44,2.09,6.74,3.36,7.39.36-1.75-1.64-8.41-.61-9.38,1.3-.17,2.07-1.25,3.06-1.67.51-.22,1.42-.05,1.79-.32.49-.35.25-3.41,2.64-3.7,2.55-.31,3.7,2.82,3.65,4.91,3.18-2.7.96-6.41,1.24-9.87.33-3.99,5.57-3.74,5.77.05l1.41-.54c1.2.75,1.42,6.71,1.39,8.25l.89-.34c.4-.6-1.16-7.74-1.26-9.28-.08-1.34-.51-7.58,2.12-5.98,1.84,1.12,1.83,9.56,2.46,11.74.6.07.38-1.21.36-1.59-.18-2.77-1.05-5.56-.73-8.41.06-.52.07-1.08.71-1.21,1.38,3.34,1.13,7.02,1.76,10.52,3.26-.21.88-5.62.7-7.89-.08-1.07-.19-3.63-.01-4.56s.81-.19,1.04-2.81c.13-1.5.68-2.5,1.31-.59,1.22,3.71,1.11,8.25,1.92,12.11.15.42,1.47.97,1.96,1.2.42.19.54.69.97.09.36-.48.13-.98.08-1.49-.37-4.05-4.6-15.54-2.99-18.6.36-.69,1.27-.66,1.34-1.47.12-1.4-1.44-6.09-.03-7.03,4.05-2.69,3.5,8.2,4.2,9.42l1.77.58c.1-1.06-.15-2.28.02-3.31.23-1.37,1.58-3.4,1.72-5.33.08-1.12-.39-1.99-.34-3.09.23-5.89,3.91-2.36,3.53,1.55l2.44.36c.07-1.8-.69-5.42,2.1-4.2.19-.64.09-1.66,1.05-1.41l1.06,12.62,1.36-.03c.9-.49-2.06-9.85.21-11.18.16.22.88.76.88.87v7.89ZM296.16,440.74c-.12-.2-1.16-.41-1.28-.99l-1.8-3.98c.37,1.05,1.15,6.11,1.46,6.59.12.18,1.34.48,1.68.77-.11-.65.23-1.88-.07-2.38Z"/>
        <path d="M85.89,693.08c-1.84.84-3.02-4.67-2.8-4.9.75-.16.8.38,1.11.81.41.56,2.14,3.66,1.69,4.09Z"/>
      </g>
      <path d="M46.27,682.22c-1.96-1.44-1.59-4.82-2.1-7.01,1.53,1.63,1.99,4.83,2.1,7.01Z"/>
    </g>
  </g>
  <path d="M109.72,241.36c-11.54,12.08-20.6,29.25-34.75,37.99-.4.25-.9.34-1.37.27-6.63-1.09-.46-12.35.19-16.69.58-1.38,2.18-9.86,3.71-5.44.58,2.32-2.91,13.66-1.73,15.14.05.07.17.06.23,0,12.23-12.33,21.08-30.06,37.37-37.84.21-.1.44.11.36.33-.62,1.65-1.99,3.85-4.01,6.24h0Z"/>
</svg>